<svg version="1.1" viewBox="0.0 0.0 1133.0 700.0" fill="none" stroke="none" stroke-linecap="square" stroke-miterlimit="10" width="1133" height="700" xmlns:xlink="http://www.w3.org/1999/xlink" xmlns="http://www.w3.org/2000/svg"><path fill="#ffffff" d="M0 0L1133.0 0L1133.0 700.0L0 700.0L0 0Z" fill-rule="nonzero"/><path stroke="#333333" stroke-width="1.0" stroke-linecap="butt" d="M62.5 597.5L938.5 597.5" fill-rule="nonzero"/><path stroke="#cccccc" stroke-width="1.0" stroke-linecap="butt" d="M62.5 427.5L938.5 427.5" fill-rule="nonzero"/><path stroke="#cccccc" stroke-width="1.0" stroke-linecap="butt" d="M62.5 258.5L938.5 258.5" fill-rule="nonzero"/><path stroke="#cccccc" stroke-width="1.0" stroke-linecap="butt" d="M62.5 89.5L938.5 89.5" fill-rule="nonzero"/><clipPath id="id_0"><path d="M62.0 89.333336L938.1556 89.333336L938.1556 597.0L62.0 597.0L62.0 89.333336Z" clip-rule="nonzero"/></clipPath><path stroke="#4285f4" stroke-width="2.0" stroke-linecap="butt" clip-path="url(#id_0)" d="M171.51944 590.23114L390.55832 590.23114L609.5972 580.07776L828.6361 576.69336" fill-rule="nonzero"/><path stroke="#ea4335" stroke-width="2.0" stroke-linecap="butt" clip-path="url(#id_0)" d="M171.51944 580.07776L390.55832 576.69336L609.5972 573.3089L828.6361 505.62" fill-rule="nonzero"/><path stroke="#fbbc04" stroke-width="2.0" stroke-linecap="butt" clip-path="url(#id_0)" d="M171.51944 586.8467L390.55832 590.23114L609.5972 542.8489L828.6361 163.7911" fill-rule="nonzero"/><path stroke="#34a853" stroke-width="2.0" stroke-linecap="butt" clip-path="url(#id_0)" d="M171.51944 590.23114L390.55832 593.61554L609.5972 563.1556L828.6361 478.54443" fill-rule="nonzero"/><path stroke="#ff6d01" stroke-width="2.0" stroke-linecap="butt" clip-path="url(#id_0)" d="M171.51944 593.61554L390.55832 586.8467L609.5972 569.92444L828.6361 272.09332" fill-rule="nonzero"/><path stroke="#46bdc6" stroke-width="2.0" stroke-linecap="butt" clip-path="url(#id_0)" d="M171.51944 586.8467L390.55832 590.23114L609.5972 573.3089L828.6361 478.54443" fill-rule="nonzero"/><path stroke="#674ea7" stroke-width="2.0" stroke-linecap="butt" clip-path="url(#id_0)" d="M171.51944 559.7711L390.55832 556.38666L609.5972 549.6178L828.6361 509.00446" fill-rule="nonzero"/><path fill="#4285f4" clip-path="url(#id_0)" d="M176.01944 590.23114C176.01944 592.7164 174.00473 594.73114 171.51944 594.73114C169.03416 594.73114 167.01944 592.7164 167.01944 590.23114C167.01944 587.74585 169.03416 585.73114 171.51944 585.73114C174.00473 585.73114 176.01944 587.74585 176.01944 590.23114Z" fill-rule="nonzero"/><path fill="#4285f4" clip-path="url(#id_0)" d="M395.05832 590.23114C395.05832 592.7164 393.0436 594.73114 390.55832 594.73114C388.07306 594.73114 386.05832 592.7164 386.05832 590.23114C386.05832 587.74585 388.07306 585.73114 390.55832 585.73114C393.0436 585.73114 395.05832 587.74585 395.05832 590.23114Z" fill-rule="nonzero"/><path fill="#4285f4" clip-path="url(#id_0)" d="M614.0972 580.07776C614.0972 582.56305 612.0825 584.57776 609.5972 584.57776C607.11194 584.57776 605.0972 582.56305 605.0972 580.07776C605.0972 577.59247 607.11194 575.57776 609.5972 575.57776C612.0825 575.57776 614.0972 577.59247 614.0972 580.07776Z" fill-rule="nonzero"/><path fill="#4285f4" clip-path="url(#id_0)" d="M833.1361 576.69336C833.1361 579.1786 831.1214 581.19336 828.6361 581.19336C826.1508 581.19336 824.1361 579.1786 824.1361 576.69336C824.1361 574.20807 826.1508 572.19336 828.6361 572.19336C831.1214 572.19336 833.1361 574.20807 833.1361 576.69336Z" fill-rule="nonzero"/><path fill="#ea4335" clip-path="url(#id_0)" d="M176.01944 580.07776C176.01944 582.56305 174.00473 584.57776 171.51944 584.57776C169.03416 584.57776 167.01944 582.56305 167.01944 580.07776C167.01944 577.59247 169.03416 575.57776 171.51944 575.57776C174.00473 575.57776 176.01944 577.59247 176.01944 580.07776Z" fill-rule="nonzero"/><path fill="#ea4335" clip-path="url(#id_0)" d="M395.05832 576.69336C395.05832 579.1786 393.0436 581.19336 390.55832 581.19336C388.07306 581.19336 386.05832 579.1786 386.05832 576.69336C386.05832 574.20807 388.07306 572.19336 390.55832 572.19336C393.0436 572.19336 395.05832 574.20807 395.05832 576.69336Z" fill-rule="nonzero"/><path fill="#ea4335" clip-path="url(#id_0)" d="M614.0972 573.3089C614.0972 575.7942 612.0825 577.8089 609.5972 577.8089C607.11194 577.8089 605.0972 575.7942 605.0972 573.3089C605.0972 570.8236 607.11194 568.8089 609.5972 568.8089C612.0825 568.8089 614.0972 570.8236 614.0972 573.3089Z" fill-rule="nonzero"/><path fill="#ea4335" clip-path="url(#id_0)" d="M833.1361 505.62C833.1361 508.1053 831.1214 510.12 828.6361 510.12C826.1508 510.12 824.1361 508.1053 824.1361 505.62C824.1361 503.1347 826.1508 501.12 828.6361 501.12C831.1214 501.12 833.1361 503.1347 833.1361 505.62Z" fill-rule="nonzero"/><path fill="#fbbc04" clip-path="url(#id_0)" d="M176.01944 586.8467C176.01944 589.332 174.00473 591.3467 171.51944 591.3467C169.03416 591.3467 167.01944 589.332 167.01944 586.8467C167.01944 584.3614 169.03416 582.3467 171.51944 582.3467C174.00473 582.3467 176.01944 584.3614 176.01944 586.8467Z" fill-rule="nonzero"/><path fill="#fbbc04" clip-path="url(#id_0)" d="M395.05832 590.23114C395.05832 592.7164 393.0436 594.73114 390.55832 594.73114C388.07306 594.73114 386.05832 592.7164 386.05832 590.23114C386.05832 587.74585 388.07306 585.73114 390.55832 585.73114C393.0436 585.73114 395.05832 587.74585 395.05832 590.23114Z" fill-rule="nonzero"/><path fill="#fbbc04" clip-path="url(#id_0)" d="M614.0972 542.8489C614.0972 545.33417 612.0825 547.3489 609.5972 547.3489C607.11194 547.3489 605.0972 545.33417 605.0972 542.8489C605.0972 540.3636 607.11194 538.3489 609.5972 538.3489C612.0825 538.3489 614.0972 540.3636 614.0972 542.8489Z" fill-rule="nonzero"/><path fill="#fbbc04" clip-path="url(#id_0)" d="M833.1361 163.7911C833.1361 166.2764 831.1214 168.2911 828.6361 168.2911C826.1508 168.2911 824.1361 166.2764 824.1361 163.7911C824.1361 161.30583 826.1508 159.2911 828.6361 159.2911C831.1214 159.2911 833.1361 161.30583 833.1361 163.7911Z" fill-rule="nonzero"/><path fill="#34a853" clip-path="url(#id_0)" d="M176.01944 590.23114C176.01944 592.7164 174.00473 594.73114 171.51944 594.73114C169.03416 594.73114 167.01944 592.7164 167.01944 590.23114C167.01944 587.74585 169.03416 585.73114 171.51944 585.73114C174.00473 585.73114 176.01944 587.74585 176.01944 590.23114Z" fill-rule="nonzero"/><path fill="#34a853" clip-path="url(#id_0)" d="M395.05832 593.61554C395.05832 596.1008 393.0436 598.11554 390.55832 598.11554C388.07306 598.11554 386.05832 596.1008 386.05832 593.61554C386.05832 591.13025 388.07306 589.11554 390.55832 589.11554C393.0436 589.11554 395.05832 591.13025 395.05832 593.61554Z" fill-rule="nonzero"/><path fill="#34a853" clip-path="url(#id_0)" d="M614.0972 563.1556C614.0972 565.6408 612.0825 567.6556 609.5972 567.6556C607.11194 567.6556 605.0972 565.6408 605.0972 563.1556C605.0972 560.6703 607.11194 558.6556 609.5972 558.6556C612.0825 558.6556 614.0972 560.6703 614.0972 563.1556Z" fill-rule="nonzero"/><path fill="#34a853" clip-path="url(#id_0)" d="M833.1361 478.54443C833.1361 481.02972 831.1214 483.04443 828.6361 483.04443C826.1508 483.04443 824.1361 481.02972 824.1361 478.54443C824.1361 476.05917 826.1508 474.04443 828.6361 474.04443C831.1214 474.04443 833.1361 476.05917 833.1361 478.54443Z" fill-rule="nonzero"/><path fill="#ff6d01" clip-path="url(#id_0)" d="M176.01944 593.61554C176.01944 596.1008 174.00473 598.11554 171.51944 598.11554C169.03416 598.11554 167.01944 596.1008 167.01944 593.61554C167.01944 591.13025 169.03416 589.11554 171.51944 589.11554C174.00473 589.11554 176.01944 591.13025 176.01944 593.61554Z" fill-rule="nonzero"/><path fill="#ff6d01" clip-path="url(#id_0)" d="M395.05832 586.8467C395.05832 589.332 393.0436 591.3467 390.55832 591.3467C388.07306 591.3467 386.05832 589.332 386.05832 586.8467C386.05832 584.3614 388.07306 582.3467 390.55832 582.3467C393.0436 582.3467 395.05832 584.3614 395.05832 586.8467Z" fill-rule="nonzero"/><path fill="#ff6d01" clip-path="url(#id_0)" d="M614.0972 569.92444C614.0972 572.4097 612.0825 574.42444 609.5972 574.42444C607.11194 574.42444 605.0972 572.4097 605.0972 569.92444C605.0972 567.43915 607.11194 565.42444 609.5972 565.42444C612.0825 565.42444 614.0972 567.43915 614.0972 569.92444Z" fill-rule="nonzero"/><path fill="#ff6d01" clip-path="url(#id_0)" d="M833.1361 272.09332C833.1361 274.5786 831.1214 276.59332 828.6361 276.59332C826.1508 276.59332 824.1361 274.5786 824.1361 272.09332C824.1361 269.60806 826.1508 267.59332 828.6361 267.59332C831.1214 267.59332 833.1361 269.60806 833.1361 272.09332Z" fill-rule="nonzero"/><path fill="#46bdc6" clip-path="url(#id_0)" d="M176.01944 586.8467C176.01944 589.332 174.00473 591.3467 171.51944 591.3467C169.03416 591.3467 167.01944 589.332 167.01944 586.8467C167.01944 584.3614 169.03416 582.3467 171.51944 582.3467C174.00473 582.3467 176.01944 584.3614 176.01944 586.8467Z" fill-rule="nonzero"/><path fill="#46bdc6" clip-path="url(#id_0)" d="M395.05832 590.23114C395.05832 592.7164 393.0436 594.73114 390.55832 594.73114C388.07306 594.73114 386.05832 592.7164 386.05832 590.23114C386.05832 587.74585 388.07306 585.73114 390.55832 585.73114C393.0436 585.73114 395.05832 587.74585 395.05832 590.23114Z" fill-rule="nonzero"/><path fill="#46bdc6" clip-path="url(#id_0)" d="M614.0972 573.3089C614.0972 575.7942 612.0825 577.8089 609.5972 577.8089C607.11194 577.8089 605.0972 575.7942 605.0972 573.3089C605.0972 570.8236 607.11194 568.8089 609.5972 568.8089C612.0825 568.8089 614.0972 570.8236 614.0972 573.3089Z" fill-rule="nonzero"/><path fill="#46bdc6" clip-path="url(#id_0)" d="M833.1361 478.54443C833.1361 481.02972 831.1214 483.04443 828.6361 483.04443C826.1508 483.04443 824.1361 481.02972 824.1361 478.54443C824.1361 476.05917 826.1508 474.04443 828.6361 474.04443C831.1214 474.04443 833.1361 476.05917 833.1361 478.54443Z" fill-rule="nonzero"/><path fill="#674ea7" clip-path="url(#id_0)" d="M176.01944 559.7711C176.01944 562.2564 174.00473 564.2711 171.51944 564.2711C169.03416 564.2711 167.01944 562.2564 167.01944 559.7711C167.01944 557.2858 169.03416 555.2711 171.51944 555.2711C174.00473 555.2711 176.01944 557.2858 176.01944 559.7711Z" fill-rule="nonzero"/><path fill="#674ea7" clip-path="url(#id_0)" d="M395.05832 556.38666C395.05832 558.87195 393.0436 560.88666 390.55832 560.88666C388.07306 560.88666 386.05832 558.87195 386.05832 556.38666C386.05832 553.90137 388.07306 551.88666 390.55832 551.88666C393.0436 551.88666 395.05832 553.90137 395.05832 556.38666Z" fill-rule="nonzero"/><path fill="#674ea7" clip-path="url(#id_0)" d="M614.0972 549.6178C614.0972 552.1031 612.0825 554.1178 609.5972 554.1178C607.11194 554.1178 605.0972 552.1031 605.0972 549.6178C605.0972 547.1325 607.11194 545.1178 609.5972 545.1178C612.0825 545.1178 614.0972 547.1325 614.0972 549.6178Z" fill-rule="nonzero"/><path fill="#674ea7" clip-path="url(#id_0)" d="M833.1361 509.00446C833.1361 511.48972 831.1214 513.50446 828.6361 513.50446C826.1508 513.50446 824.1361 511.48972 824.1361 509.00446C824.1361 506.51917 826.1508 504.50446 828.6361 504.50446C831.1214 504.50446 833.1361 506.51917 833.1361 509.00446Z" fill-rule="nonzero"/><path fill="#000000" d="M434.9684 661.0L434.9684 648.1094L439.8278 648.1094Q441.10904 648.1094 441.7809 648.2344Q442.73404 648.3906 443.37466 648.84375Q444.0153 649.28125 444.4059 650.09375Q444.79654 650.8906 444.79654 651.84375Q444.79654 653.4844 443.74966 654.625Q442.7028 655.7656 439.98404 655.7656L436.67154 655.7656L436.67154 661.0L434.9684 661.0ZM436.67154 654.2344L439.99966 654.2344Q441.6559 654.2344 442.3434 653.625Q443.04654 653.0156 443.04654 651.8906Q443.04654 651.0781 442.6403 650.5156Q442.23404 649.9375 441.56216 649.75Q441.12466 649.6406 439.9684 649.6406L436.67154 649.6406L436.67154 654.2344ZM446.7809 649.9375L446.7809 648.1094L448.35904 648.1094L448.35904 649.9375L446.7809 649.9375ZM446.7809 661.0L446.7809 651.6719L448.35904 651.6719L448.35904 661.0L446.7809 661.0ZM450.7653 664.5781L450.7653 651.6719L452.2028 651.6719L452.2028 652.875Q452.7184 652.1719 453.35904 651.8125Q453.99966 651.4531 454.9059 651.4531Q456.10904 651.4531 457.0153 652.0781Q457.93716 652.6875 458.4059 653.8125Q458.87466 654.9219 458.87466 656.2656Q458.87466 657.6875 458.35904 658.84375Q457.8434 659.9844 456.85904 660.6094Q455.87466 661.21875 454.79654 661.21875Q454.0153 661.21875 453.37466 660.8906Q452.74966 660.5469 452.3434 660.03125L452.3434 664.5781L450.7653 664.5781ZM452.2028 656.3906Q452.2028 658.1875 452.92154 659.0469Q453.6559 659.90625 454.68716 659.90625Q455.74966 659.90625 456.49966 659.0156Q457.24966 658.125 457.24966 656.25Q457.24966 654.46875 456.5153 653.5781Q455.7809 652.6875 454.7653 652.6875Q453.74966 652.6875 452.9684 653.6406Q452.2028 654.5781 452.2028 656.3906ZM467.1559 658.0L468.79654 658.2031Q468.4059 659.625 467.35904 660.4219Q466.31216 661.21875 464.68716 661.21875Q462.6403 661.21875 461.43716 659.9531Q460.23404 658.6875 460.23404 656.40625Q460.23404 654.0625 461.43716 652.7656Q462.6559 651.4531 464.5934 651.4531Q466.4684 651.4531 467.6559 652.7344Q468.8434 654.0 468.8434 656.3125Q468.8434 656.4531 468.8278 656.7344L461.87466 656.7344Q461.9528 658.28125 462.73404 659.09375Q463.5309 659.90625 464.68716 659.90625Q465.56216 659.90625 466.17154 659.4531Q466.79654 659.0 467.1559 658.0ZM461.9528 655.4375L467.17154 655.4375Q467.06216 654.2656 466.5778 653.6719Q465.81216 652.75 464.60904 652.75Q463.5309 652.75 462.7809 653.4844Q462.04654 654.21875 461.9528 655.4375ZM470.73404 661.0L470.73404 648.1094L472.31216 648.1094L472.31216 661.0L470.73404 661.0ZM474.7809 649.9375L474.7809 648.1094L476.35904 648.1094L476.35904 649.9375L474.7809 649.9375ZM474.7809 661.0L474.7809 651.6719L476.35904 651.6719L476.35904 661.0L474.7809 661.0ZM478.7653 661.0L478.7653 651.6719L480.18716 651.6719L480.18716 653.0Q481.2184 651.4531 483.1559 651.4531Q483.99966 651.4531 484.7028 651.7656Q485.42154 652.0625 485.7653 652.5625Q486.12466 653.0469 486.2653 653.71875Q486.3434 654.15625 486.3434 655.2656L486.3434 661.0L484.7653 661.0L484.7653 655.3281Q484.7653 654.3594 484.5778 653.875Q484.4059 653.3906 483.92154 653.1094Q483.4528 652.8281 482.8278 652.8281Q481.81216 652.8281 481.0778 653.46875Q480.3434 654.1094 480.3434 655.90625L480.3434 661.0L478.7653 661.0ZM495.1559 658.0L496.79654 658.2031Q496.4059 659.625 495.35904 660.4219Q494.31216 661.21875 492.68716 661.21875Q490.6403 661.21875 489.43716 659.9531Q488.23404 658.6875 488.23404 656.40625Q488.23404 654.0625 489.43716 652.7656Q490.6559 651.4531 492.5934 651.4531Q494.4684 651.4531 495.6559 652.7344Q496.8434 654.0 496.8434 656.3125Q496.8434 656.4531 496.8278 656.7344L489.87466 656.7344Q489.9528 658.28125 490.73404 659.09375Q491.5309 659.90625 492.68716 659.90625Q493.56216 659.90625 494.17154 659.4531Q494.79654 659.0 495.1559 658.0ZM489.9528 655.4375L495.17154 655.4375Q495.06216 654.2656 494.5778 653.6719Q493.81216 652.75 492.60904 652.75Q491.5309 652.75 490.7809 653.4844Q490.04654 654.21875 489.9528 655.4375ZM503.9528 661.0L503.9528 648.1094L505.7028 648.1094L512.4684 658.2344L512.4684 648.1094L514.0934 648.1094L514.0934 661.0L512.359 661.0L505.5778 650.875L505.5778 661.0L503.9528 661.0ZM522.87463 661.0L522.87463 659.625Q521.7965 661.21875 519.9215 661.21875Q519.0934 661.21875 518.37463 660.90625Q517.6559 660.5781 517.31213 660.1094Q516.9684 659.625 516.82776 658.9219Q516.734 658.4531 516.734 657.4531L516.734 651.6719L518.31213 651.6719L518.31213 656.84375Q518.31213 658.0781 518.4059 658.5156Q518.56213 659.1406 519.0465 659.5Q519.5309 659.84375 520.234 659.84375Q520.95276 659.84375 521.57776 659.4844Q522.20276 659.125 522.45276 658.5Q522.7184 657.8594 522.7184 656.6719L522.7184 651.6719L524.2965 651.6719L524.2965 661.0L522.87463 661.0ZM526.76526 661.0L526.76526 651.6719L528.18713 651.6719L528.18713 652.96875Q528.62463 652.2969 529.3434 651.875Q530.07776 651.4531 531.01526 651.4531Q532.0465 651.4531 532.70276 651.8906Q533.37463 652.3125 533.64026 653.09375Q534.74963 651.4531 536.5309 651.4531Q537.9215 651.4531 538.6559 652.2344Q539.4059 653.0 539.4059 654.59375L539.4059 661.0L537.8434 661.0L537.8434 655.125Q537.8434 654.1719 537.68713 653.75Q537.5309 653.3281 537.12463 653.0781Q536.7184 652.8281 536.1715 652.8281Q535.18713 652.8281 534.5309 653.4844Q533.89026 654.1406 533.89026 655.5781L533.89026 661.0L532.31213 661.0L532.31213 654.9375Q532.31213 653.875 531.9215 653.3594Q531.5309 652.8281 530.6559 652.8281Q529.984 652.8281 529.4215 653.1875Q528.859 653.53125 528.5934 654.2031Q528.3434 654.875 528.3434 656.15625L528.3434 661.0L526.76526 661.0ZM543.2184 661.0L541.74963 661.0L541.74963 648.1094L543.3434 648.1094L543.3434 652.71875Q544.3434 651.4531 545.89026 651.4531Q546.74963 651.4531 547.51526 651.8125Q548.2965 652.15625 548.7809 652.78125Q549.2809 653.40625 549.56213 654.2969Q549.8434 655.1875 549.8434 656.1875Q549.8434 658.59375 548.6559 659.90625Q547.484 661.21875 545.81213 661.21875Q544.1715 661.21875 543.2184 659.8281L543.2184 661.0ZM543.20276 656.2656Q543.20276 657.9375 543.6559 658.6875Q544.4059 659.90625 545.68713 659.90625Q546.7184 659.90625 547.4684 659.0156Q548.234 658.1094 548.234 656.3281Q548.234 654.5 547.49963 653.625Q546.7809 652.75 545.74963 652.75Q544.7184 652.75 543.95276 653.65625Q543.20276 654.5625 543.20276 656.2656ZM558.1559 658.0L559.7965 658.2031Q559.4059 659.625 558.359 660.4219Q557.31213 661.21875 555.68713 661.21875Q553.64026 661.21875 552.43713 659.9531Q551.234 658.6875 551.234 656.40625Q551.234 654.0625 552.43713 652.7656Q553.6559 651.4531 555.5934 651.4531Q557.4684 651.4531 558.6559 652.7344Q559.8434 654.0 559.8434 656.3125Q559.8434 656.4531 559.82776 656.7344L552.87463 656.7344Q552.95276 658.28125 553.734 659.09375Q554.5309 659.90625 555.68713 659.90625Q556.56213 659.90625 557.1715 659.4531Q557.7965 659.0 558.1559 658.0ZM552.95276 655.4375L558.1715 655.4375Q558.06213 654.2656 557.57776 653.6719Q556.81213 652.75 555.609 652.75Q554.5309 652.75 553.7809 653.4844Q553.0465 654.21875 552.95276 655.4375ZM561.74963 661.0L561.74963 651.6719L563.1715 651.6719L563.1715 653.0781Q563.7184 652.09375 564.1715 651.78125Q564.64026 651.4531 565.18713 651.4531Q565.99963 651.4531 566.81213 651.96875L566.2809 653.4375Q565.68713 653.09375 565.109 653.09375Q564.5934 653.09375 564.1715 653.40625Q563.76526 653.71875 563.5934 654.2656Q563.32776 655.1094 563.32776 656.1094L563.32776 661.0L561.74963 661.0Z" fill-rule="nonzero"/><path fill="#000000" d="M49.5 596.7656Q49.5 595.2344 49.8125 594.3125Q50.125 593.375 50.734375 592.875Q51.359375 592.375 52.296875 592.375Q52.984375 592.375 53.5 592.65625Q54.03125 592.9375 54.375 593.46875Q54.71875 593.9844 54.90625 594.7344Q55.09375 595.4844 55.09375 596.7656Q55.09375 598.28125 54.78125 599.2031Q54.484375 600.125 53.859375 600.6406Q53.25 601.1406 52.296875 601.1406Q51.0625 601.1406 50.34375 600.25Q49.5 599.1875 49.5 596.7656ZM50.578125 596.7656Q50.578125 598.875 51.078125 599.5781Q51.578125 600.28125 52.296875 600.28125Q53.03125 600.28125 53.515625 599.5781Q54.015625 598.875 54.015625 596.7656Q54.015625 594.6406 53.515625 593.9531Q53.03125 593.25 52.28125 593.25Q51.5625 593.25 51.125 593.8594Q50.578125 594.6406 50.578125 596.7656Z" fill-rule="nonzero"/><path fill="#000000" d="M42.5 429.52777L43.609375 429.43402Q43.734375 430.24652 44.171875 430.65277Q44.625 431.05902 45.265625 431.05902Q46.015625 431.05902 46.546875 430.4809Q47.078125 429.90277 47.078125 428.96527Q47.078125 428.05902 46.5625 427.5434Q46.0625 427.01215 45.234375 427.01215Q44.734375 427.01215 44.3125 427.24652Q43.90625 427.4809 43.671875 427.84027L42.6875 427.71527L43.515625 423.30902L47.796875 423.30902L47.796875 424.30902L44.359375 424.30902L43.90625 426.62152Q44.671875 426.07465 45.515625 426.07465Q46.640625 426.07465 47.40625 426.8559Q48.1875 427.63715 48.1875 428.87152Q48.1875 430.02777 47.515625 430.88715Q46.6875 431.9184 45.265625 431.9184Q44.09375 431.9184 43.34375 431.26215Q42.609375 430.6059 42.5 429.52777ZM49.5 427.5434Q49.5 426.01215 49.8125 425.09027Q50.125 424.15277 50.734375 423.65277Q51.359375 423.15277 52.296875 423.15277Q52.984375 423.15277 53.5 423.43402Q54.03125 423.71527 54.375 424.24652Q54.71875 424.76215 54.90625 425.51215Q55.09375 426.26215 55.09375 427.5434Q55.09375 429.05902 54.78125 429.9809Q54.484375 430.90277 53.859375 431.4184Q53.25 431.9184 52.296875 431.9184Q51.0625 431.9184 50.34375 431.02777Q49.5 429.96527 49.5 427.5434ZM50.578125 427.5434Q50.578125 429.65277 51.078125 430.3559Q51.578125 431.05902 52.296875 431.05902Q53.03125 431.05902 53.515625 430.3559Q54.015625 429.65277 54.015625 427.5434Q54.015625 425.4184 53.515625 424.7309Q53.03125 424.02777 52.28125 424.02777Q51.5625 424.02777 51.125 424.63715Q50.578125 425.4184 50.578125 427.5434Z" fill-rule="nonzero"/><path fill="#000000" d="M39.46875 262.55554L38.421875 262.55554L38.421875 255.83679Q38.03125 256.19617 37.40625 256.57117Q36.796875 256.93054 36.3125 257.10242L36.3125 256.0868Q37.1875 255.66492 37.84375 255.08679Q38.515625 254.49304 38.796875 253.93054L39.46875 253.93054L39.46875 262.55554ZM42.5 258.32117Q42.5 256.78992 42.8125 255.86804Q43.125 254.93054 43.734375 254.43054Q44.359375 253.93054 45.296875 253.93054Q45.984375 253.93054 46.5 254.21179Q47.03125 254.49304 47.375 255.02429Q47.71875 255.53992 47.90625 256.28992Q48.09375 257.03992 48.09375 258.32117Q48.09375 259.8368 47.78125 260.75867Q47.484375 261.68054 46.859375 262.19617Q46.25 262.69617 45.296875 262.69617Q44.0625 262.69617 43.34375 261.80554Q42.5 260.74304 42.5 258.32117ZM43.578125 258.32117Q43.578125 260.43054 44.078125 261.13367Q44.578125 261.8368 45.296875 261.8368Q46.03125 261.8368 46.515625 261.13367Q47.015625 260.43054 47.015625 258.32117Q47.015625 256.19617 46.515625 255.50867Q46.03125 254.80554 45.28125 254.80554Q44.5625 254.80554 44.125 255.41492Q43.578125 256.19617 43.578125 258.32117ZM49.5 258.32117Q49.5 256.78992 49.8125 255.86804Q50.125 254.93054 50.734375 254.43054Q51.359375 253.93054 52.296875 253.93054Q52.984375 253.93054 53.5 254.21179Q54.03125 254.49304 54.375 255.02429Q54.71875 255.53992 54.90625 256.28992Q55.09375 257.03992 55.09375 258.32117Q55.09375 259.8368 54.78125 260.75867Q54.484375 261.68054 53.859375 262.19617Q53.25 262.69617 52.296875 262.69617Q51.0625 262.69617 50.34375 261.80554Q49.5 260.74304 49.5 258.32117ZM50.578125 258.32117Q50.578125 260.43054 51.078125 261.13367Q51.578125 261.8368 52.296875 261.8368Q53.03125 261.8368 53.515625 261.13367Q54.015625 260.43054 54.015625 258.32117Q54.015625 256.19617 53.515625 255.50867Q53.03125 254.80554 52.28125 254.80554Q51.5625 254.80554 51.125 255.41492Q50.578125 256.19617 50.578125 258.32117Z" fill-rule="nonzero"/><path fill="#000000" d="M39.46875 93.333336L38.421875 93.333336L38.421875 86.614586Q38.03125 86.97396 37.40625 87.34896Q36.796875 87.708336 36.3125 87.88021L36.3125 86.864586Q37.1875 86.44271 37.84375 85.864586Q38.515625 85.270836 38.796875 84.708336L39.46875 84.708336L39.46875 93.333336ZM42.5 91.083336L43.609375 90.989586Q43.734375 91.802086 44.171875 92.208336Q44.625 92.614586 45.265625 92.614586Q46.015625 92.614586 46.546875 92.03646Q47.078125 91.458336 47.078125 90.520836Q47.078125 89.614586 46.5625 89.09896Q46.0625 88.56771 45.234375 88.56771Q44.734375 88.56771 44.3125 88.802086Q43.90625 89.03646 43.671875 89.395836L42.6875 89.270836L43.515625 84.864586L47.796875 84.864586L47.796875 85.864586L44.359375 85.864586L43.90625 88.177086Q44.671875 87.63021 45.515625 87.63021Q46.640625 87.63021 47.40625 88.41146Q48.1875 89.19271 48.1875 90.427086Q48.1875 91.583336 47.515625 92.44271Q46.6875 93.47396 45.265625 93.47396Q44.09375 93.47396 43.34375 92.81771Q42.609375 92.16146 42.5 91.083336ZM49.5 89.09896Q49.5 87.56771 49.8125 86.645836Q50.125 85.708336 50.734375 85.208336Q51.359375 84.708336 52.296875 84.708336Q52.984375 84.708336 53.5 84.989586Q54.03125 85.270836 54.375 85.802086Q54.71875 86.31771 54.90625 87.06771Q55.09375 87.81771 55.09375 89.09896Q55.09375 90.614586 54.78125 91.53646Q54.484375 92.458336 53.859375 92.97396Q53.25 93.47396 52.296875 93.47396Q51.0625 93.47396 50.34375 92.583336Q49.5 91.520836 49.5 89.09896ZM50.578125 89.09896Q50.578125 91.208336 51.078125 91.91146Q51.578125 92.614586 52.296875 92.614586Q53.03125 92.614586 53.515625 91.91146Q54.015625 91.208336 54.015625 89.09896Q54.015625 86.97396 53.515625 86.28646Q53.03125 85.583336 52.28125 85.583336Q51.5625 85.583336 51.125 86.19271Q50.578125 86.97396 50.578125 89.09896Z" fill-rule="nonzero"/><path fill="#000000" d="M172.48819 614.0L171.44131 614.0L171.44131 607.28125Q171.05069 607.6406 170.42569 608.0156Q169.81631 608.375 169.33194 608.5469L169.33194 607.53125Q170.20694 607.1094 170.86319 606.53125Q171.53506 605.9375 171.81631 605.375L172.48819 605.375L172.48819 614.0Z" fill-rule="nonzero"/><path fill="#000000" d="M390.93332 614.0L390.93332 611.9375L387.21457 611.9375L387.21457 610.96875L391.13644 605.40625L391.99582 605.40625L391.99582 610.96875L393.15207 610.96875L393.15207 611.9375L391.99582 611.9375L391.99582 614.0L390.93332 614.0ZM390.93332 610.96875L390.93332 607.1094L388.24582 610.96875L390.93332 610.96875Z" fill-rule="nonzero"/><path fill="#000000" d="M603.0972 611.7344L604.1597 611.59375Q604.3316 612.4844 604.7691 612.8906Q605.2066 613.28125 605.8316 613.28125Q606.5816 613.28125 607.0972 612.7656Q607.61285 612.25 607.61285 611.4844Q607.61285 610.7656 607.1285 610.2969Q606.6597 609.8125 605.92535 609.8125Q605.6285 609.8125 605.17535 609.9375L605.30035 609.0Q605.4097 609.0156 605.4722 609.0156Q606.1441 609.0156 606.67535 608.6719Q607.2222 608.3125 607.2222 607.5781Q607.2222 607.0 606.8316 606.625Q606.441 606.2344 605.816 606.2344Q605.2066 606.2344 604.7847 606.625Q604.3785 607.0156 604.2691 607.78125L603.2066 607.59375Q603.3941 606.5469 604.0816 605.96875Q604.7691 605.375 605.7847 605.375Q606.48785 605.375 607.0816 605.6875Q607.67535 605.9844 607.98785 606.5Q608.30035 607.0156 608.30035 607.6094Q608.30035 608.15625 608.0035 608.625Q607.7066 609.0781 607.1285 609.34375Q607.8785 609.5156 608.30035 610.0781Q608.7222 610.625 608.7222 611.46875Q608.7222 612.59375 607.8941 613.375Q607.0816 614.15625 605.8316 614.15625Q604.7066 614.15625 603.9566 613.4844Q603.2066 612.7969 603.0972 611.7344ZM615.6441 612.9844L615.6441 614.0L609.9566 614.0Q609.9566 613.625 610.0816 613.2656Q610.30035 612.6875 610.7691 612.125Q611.2535 611.5625 612.1597 610.8281Q613.566 609.6719 614.05035 609.0Q614.55035 608.3281 614.55035 607.7344Q614.55035 607.1094 614.0972 606.6875Q613.6441 606.25 612.92535 606.25Q612.1597 606.25 611.7066 606.7031Q611.2535 607.15625 611.23785 607.96875L610.1597 607.8594Q610.2691 606.6406 610.98785 606.0156Q611.7222 605.375 612.9566 605.375Q614.191 605.375 614.9097 606.0625Q615.6285 606.75 615.6285 607.7656Q615.6285 608.28125 615.4097 608.78125Q615.2066 609.2656 614.7066 609.8281Q614.2222 610.375 613.0972 611.3281Q612.1441 612.125 611.86285 612.4219Q611.5972 612.7031 611.42535 612.9844L615.6441 612.9844Z" fill-rule="nonzero"/><path fill="#000000" d="M824.183 612.9844L824.183 614.0L818.4955 614.0Q818.4955 613.625 818.6205 613.2656Q818.83923 612.6875 819.308 612.125Q819.79236 611.5625 820.6986 610.8281Q822.10486 609.6719 822.58923 609.0Q823.08923 608.3281 823.08923 607.7344Q823.08923 607.1094 822.6361 606.6875Q822.183 606.25 821.46423 606.25Q820.6986 606.25 820.2455 606.7031Q819.79236 607.15625 819.77673 607.96875L818.6986 607.8594Q818.808 606.6406 819.52673 606.0156Q820.2611 605.375 821.4955 605.375Q822.72986 605.375 823.4486 606.0625Q824.16736 606.75 824.16736 607.7656Q824.16736 608.28125 823.9486 608.78125Q823.7455 609.2656 823.2455 609.8281Q822.7611 610.375 821.6361 611.3281Q820.683 612.125 820.40173 612.4219Q820.1361 612.7031 819.96423 612.9844L824.183 612.9844ZM825.6361 611.75L826.7455 611.65625Q826.8705 612.46875 827.308 612.875Q827.7611 613.28125 828.40173 613.28125Q829.15173 613.28125 829.683 612.7031Q830.21423 612.125 830.21423 611.1875Q830.21423 610.28125 829.6986 609.7656Q829.1986 609.2344 828.3705 609.2344Q827.8705 609.2344 827.4486 609.46875Q827.04236 609.7031 826.808 610.0625L825.8236 609.9375L826.65173 605.53125L830.933 605.53125L830.933 606.53125L827.4955 606.53125L827.04236 608.84375Q827.808 608.2969 828.65173 608.2969Q829.77673 608.2969 830.54236 609.0781Q831.3236 609.8594 831.3236 611.09375Q831.3236 612.25 830.65173 613.1094Q829.8236 614.1406 828.40173 614.1406Q827.22986 614.1406 826.47986 613.4844Q825.7455 612.8281 825.6361 611.75ZM838.10486 607.5156L837.058 607.59375Q836.91736 606.96875 836.66736 606.6875Q836.22986 606.2344 835.60486 606.2344Q835.10486 606.2344 834.71423 606.5156Q834.22986 606.8906 833.933 607.59375Q833.65173 608.28125 833.6361 609.5625Q834.0111 608.9844 834.558 608.7031Q835.1205 608.4219 835.72986 608.4219Q836.77673 608.4219 837.5111 609.2031Q838.2611 609.9844 838.2611 611.2031Q838.2611 612.0156 837.90173 612.71875Q837.558 613.40625 836.9486 613.78125Q836.33923 614.1406 835.5736 614.1406Q834.2455 614.1406 833.41736 613.1719Q832.58923 612.2031 832.58923 609.9844Q832.58923 607.4844 833.5111 606.3594Q834.308 605.375 835.66736 605.375Q836.683 605.375 837.3236 605.9531Q837.97986 606.5156 838.10486 607.5156ZM833.808 611.21875Q833.808 611.7656 834.02673 612.2656Q834.2611 612.75 834.66736 613.0156Q835.08923 613.28125 835.558 613.28125Q836.21423 613.28125 836.6986 612.75Q837.183 612.2031 837.183 611.28125Q837.183 610.3906 836.6986 609.875Q836.22986 609.3594 835.5111 609.3594Q834.79236 609.3594 834.29236 609.875Q833.808 610.3906 833.808 611.21875Z" fill-rule="nonzero"/><path fill="#4285f4" d="M989.0 89.333336C989.0 92.64704 986.3137 95.333336 983.0 95.333336C979.6863 95.333336 977.0 92.64704 977.0 89.333336C977.0 86.01962 979.6863 83.333336 983.0 83.333336C986.3137 83.333336 989.0 86.01962 989.0 89.333336Z" fill-rule="nonzero"/><path fill="#1a1a1a" d="M1001.875 93.333336L1001.875 92.41146Q1001.1406 93.47396 999.8906 93.47396Q999.34375 93.47396 998.8594 93.270836Q998.3906 93.052086 998.15625 92.739586Q997.9219 92.41146 997.8281 91.94271Q997.7656 91.645836 997.7656 90.958336L997.7656 87.114586L998.8281 87.114586L998.8281 90.56771Q998.8281 91.38021 998.8906 91.677086Q998.9844 92.083336 999.2969 92.333336Q999.625 92.56771 1000.1094 92.56771Q1000.5781 92.56771 1000.9844 92.333336Q1001.40625 92.083336 1001.5781 91.66146Q1001.7656 91.239586 1001.7656 90.44271L1001.7656 87.114586L1002.8125 87.114586L1002.8125 93.333336L1001.875 93.333336ZM1004.7969 93.333336L1004.7969 87.114586L1005.7344 87.114586L1005.7344 87.989586Q1006.4219 86.97396 1007.71875 86.97396Q1008.28125 86.97396 1008.75 87.177086Q1009.2344 87.38021 1009.46875 87.708336Q1009.7031 88.03646 1009.7969 88.47396Q1009.84375 88.770836 1009.84375 89.50521L1009.84375 93.333336L1008.7969 93.333336L1008.7969 89.552086Q1008.7969 88.895836 1008.6719 88.583336Q1008.5469 88.270836 1008.2344 88.083336Q1007.9219 87.88021 1007.5 87.88021Q1006.8281 87.88021 1006.3281 88.31771Q1005.84375 88.739586 1005.84375 89.927086L1005.84375 93.333336L1004.7969 93.333336ZM1015.8281 93.333336L1015.8281 92.552086Q1015.2344 93.47396 1014.09375 93.47396Q1013.34375 93.47396 1012.71875 93.06771Q1012.09375 92.645836 1011.75 91.91146Q1011.40625 91.177086 1011.40625 90.22396Q1011.40625 89.302086 1011.71875 88.53646Q1012.03125 87.770836 1012.65625 87.38021Q1013.28125 86.97396 1014.0469 86.97396Q1014.6094 86.97396 1015.0469 87.208336Q1015.4844 87.44271 1015.7656 87.81771L1015.7656 84.739586L1016.8125 84.739586L1016.8125 93.333336L1015.8281 93.333336ZM1012.5 90.22396Q1012.5 91.427086 1013.0 92.020836Q1013.5 92.59896 1014.1875 92.59896Q1014.875 92.59896 1015.3594 92.03646Q1015.84375 91.47396 1015.84375 90.31771Q1015.84375 89.03646 1015.34375 88.44271Q1014.8594 87.84896 1014.1406 87.84896Q1013.4375 87.84896 1012.96875 88.427086Q1012.5 88.989586 1012.5 90.22396ZM1023.0469 91.333336L1024.1406 91.458336Q1023.8906 92.41146 1023.1875 92.94271Q1022.4844 93.47396 1021.40625 93.47396Q1020.0469 93.47396 1019.2344 92.63021Q1018.4375 91.78646 1018.4375 90.270836Q1018.4375 88.708336 1019.25 87.84896Q1020.0625 86.97396 1021.34375 86.97396Q1022.59375 86.97396 1023.375 87.81771Q1024.1719 88.66146 1024.1719 90.208336Q1024.1719 90.302086 1024.1719 90.489586L1019.53125 90.489586Q1019.59375 91.520836 1020.1094 92.06771Q1020.625 92.59896 1021.40625 92.59896Q1021.9844 92.59896 1022.3906 92.302086Q1022.8125 91.989586 1023.0469 91.333336ZM1019.59375 89.63021L1023.0625 89.63021Q1023.0 88.833336 1022.6719 88.44271Q1022.15625 87.833336 1021.3594 87.833336Q1020.625 87.833336 1020.125 88.31771Q1019.6406 88.802086 1019.59375 89.63021ZM1025.7812 93.333336L1025.7812 87.114586L1026.7344 87.114586L1026.7344 88.052086Q1027.0938 87.395836 1027.3906 87.19271Q1027.7031 86.97396 1028.0781 86.97396Q1028.6094 86.97396 1029.1562 87.302086L1028.7969 88.28646Q1028.4062 88.052086 1028.0312 88.052086Q1027.6719 88.052086 1027.3906 88.270836Q1027.125 88.47396 1027.0156 88.84896Q1026.8281 89.41146 1026.8281 90.06771L1026.8281 93.333336L1025.7812 93.333336ZM1029.7969 93.333336L1029.7969 87.114586L1030.7344 87.114586L1030.7344 87.989586Q1031.0312 87.520836 1031.5156 87.25521Q1032.0 86.97396 1032.625 86.97396Q1033.3125 86.97396 1033.75 87.25521Q1034.2031 87.53646 1034.375 88.052086Q1035.125 86.97396 1036.2969 86.97396Q1037.2344 86.97396 1037.7188 87.489586Q1038.2188 87.989586 1038.2188 89.06771L1038.2188 93.333336L1037.1719 93.333336L1037.1719 89.41146Q1037.1719 88.78646 1037.0625 88.50521Q1036.9688 88.22396 1036.7031 88.052086Q1036.4375 87.88021 1036.0625 87.88021Q1035.4062 87.88021 1034.9688 88.31771Q1034.5469 88.75521 1034.5469 89.72396L1034.5469 93.333336L1033.4844 93.333336L1033.4844 89.28646Q1033.4844 88.583336 1033.2188 88.239586Q1032.9688 87.88021 1032.3906 87.88021Q1031.9375 87.88021 1031.5625 88.114586Q1031.1875 88.34896 1031.0156 88.802086Q1030.8438 89.25521 1030.8438 90.09896L1030.8438 93.333336L1029.7969 93.333336ZM1039.4062 90.22396Q1039.4062 88.489586 1040.3594 87.66146Q1041.1562 86.97396 1042.3125 86.97396Q1043.5938 86.97396 1044.4062 87.81771Q1045.2344 88.645836 1045.2344 90.13021Q1045.2344 91.333336 1044.875 92.020836Q1044.5156 92.708336 1043.8125 93.09896Q1043.125 93.47396 1042.3125 93.47396Q1041.0156 93.47396 1040.2031 92.645836Q1039.4062 91.802086 1039.4062 90.22396ZM1040.4844 90.22396Q1040.4844 91.41146 1041.0 92.00521Q1041.5312 92.59896 1042.3125 92.59896Q1043.1094 92.59896 1043.625 92.00521Q1044.1406 91.41146 1044.1406 90.19271Q1044.1406 89.03646 1043.6094 88.44271Q1043.0938 87.84896 1042.3125 87.84896Q1041.5312 87.84896 1041.0 88.44271Q1040.4844 89.020836 1040.4844 90.22396ZM1046.4062 90.22396Q1046.4062 88.489586 1047.3594 87.66146Q1048.1562 86.97396 1049.3125 86.97396Q1050.5938 86.97396 1051.4062 87.81771Q1052.2344 88.645836 1052.2344 90.13021Q1052.2344 91.333336 1051.875 92.020836Q1051.5156 92.708336 1050.8125 93.09896Q1050.125 93.47396 1049.3125 93.47396Q1048.0156 93.47396 1047.2031 92.645836Q1046.4062 91.802086 1046.4062 90.22396ZM1047.4844 90.22396Q1047.4844 91.41146 1048.0 92.00521Q1048.5312 92.59896 1049.3125 92.59896Q1050.1094 92.59896 1050.625 92.00521Q1051.1406 91.41146 1051.1406 90.19271Q1051.1406 89.03646 1050.6094 88.44271Q1050.0938 87.84896 1049.3125 87.84896Q1048.5312 87.84896 1048.0 88.44271Q1047.4844 89.020836 1047.4844 90.22396ZM1053.7969 93.333336L1053.7969 87.114586L1054.7344 87.114586L1054.7344 87.989586Q1055.4219 86.97396 1056.7188 86.97396Q1057.2812 86.97396 1057.75 87.177086Q1058.2344 87.38021 1058.4688 87.708336Q1058.7031 88.03646 1058.7969 88.47396Q1058.8438 88.770836 1058.8438 89.50521L1058.8438 93.333336L1057.7969 93.333336L1057.7969 89.552086Q1057.7969 88.895836 1057.6719 88.583336Q1057.5469 88.270836 1057.2344 88.083336Q1056.9219 87.88021 1056.5 87.88021Q1055.8281 87.88021 1055.3281 88.31771Q1054.8438 88.739586 1054.8438 89.927086L1054.8438 93.333336L1053.7969 93.333336Z" fill-rule="nonzero"/><path fill="#ea4335" d="M989.0 113.333336C989.0 116.64704 986.3137 119.333336 983.0 119.333336C979.6863 119.333336 977.0 116.64704 977.0 113.333336C977.0 110.01962 979.6863 107.333336 983.0 107.333336C986.3137 107.333336 989.0 110.01962 989.0 113.333336Z" fill-rule="nonzero"/><path fill="#1a1a1a" d="M1001.8594 116.56771Q1001.2656 117.06771 1000.71875 117.270836Q1000.1875 117.47396 999.5625 117.47396Q998.53125 117.47396 997.9844 116.97396Q997.4375 116.47396 997.4375 115.69271Q997.4375 115.239586 997.6406 114.864586Q997.84375 114.47396 998.1875 114.25521Q998.53125 114.020836 998.9531 113.91146Q999.25 113.81771 999.8906 113.739586Q1001.15625 113.59896 1001.7656 113.38021Q1001.7656 113.16146 1001.7656 113.114586Q1001.7656 112.458336 1001.46875 112.19271Q1001.0625 111.84896 1000.2656 111.84896Q999.53125 111.84896 999.1719 112.114586Q998.8125 112.364586 998.6406 113.020836L997.6094 112.88021Q997.75 112.22396 998.0781 111.81771Q998.40625 111.41146 999.0156 111.19271Q999.625 110.97396 1000.4219 110.97396Q1001.21875 110.97396 1001.71875 111.16146Q1002.21875 111.34896 1002.4531 111.63021Q1002.6875 111.91146 1002.78125 112.34896Q1002.8281 112.614586 1002.8281 113.31771L1002.8281 114.72396Q1002.8281 116.19271 1002.8906 116.583336Q1002.96875 116.97396 1003.1719 117.333336L1002.0625 117.333336Q1001.90625 117.00521 1001.8594 116.56771ZM1001.7656 114.208336Q1001.1875 114.44271 1000.0469 114.614586Q999.3906 114.708336 999.125 114.833336Q998.8594 114.94271 998.7031 115.16146Q998.5625 115.38021 998.5625 115.66146Q998.5625 116.083336 998.875 116.364586Q999.2031 116.645836 999.8125 116.645836Q1000.4219 116.645836 1000.8906 116.38021Q1001.375 116.114586 1001.59375 115.645836Q1001.7656 115.28646 1001.7656 114.59896L1001.7656 114.208336ZM1004.375 115.47396L1005.40625 115.31771Q1005.5 115.94271 1005.8906 116.270836Q1006.2969 116.59896 1007.03125 116.59896Q1007.75 116.59896 1008.09375 116.31771Q1008.4531 116.020836 1008.4531 115.614586Q1008.4531 115.25521 1008.1406 115.052086Q1007.9219 114.91146 1007.0625 114.69271Q1005.90625 114.395836 1005.4531 114.19271Q1005.0156 113.97396 1004.78125 113.59896Q1004.5469 113.22396 1004.5469 112.75521Q1004.5469 112.34896 1004.7344 111.989586Q1004.9219 111.63021 1005.25 111.395836Q1005.5 111.22396 1005.9219 111.09896Q1006.34375 110.97396 1006.84375 110.97396Q1007.5625 110.97396 1008.1094 111.19271Q1008.6719 111.395836 1008.9375 111.75521Q1009.2031 112.114586 1009.2969 112.708336L1008.2656 112.84896Q1008.2031 112.38021 1007.8594 112.114586Q1007.53125 111.833336 1006.90625 111.833336Q1006.1875 111.833336 1005.875 112.083336Q1005.5625 112.31771 1005.5625 112.645836Q1005.5625 112.84896 1005.6875 113.00521Q1005.8281 113.177086 1006.09375 113.28646Q1006.25 113.34896 1007.03125 113.552086Q1008.15625 113.864586 1008.59375 114.052086Q1009.03125 114.239586 1009.28125 114.59896Q1009.53125 114.958336 1009.53125 115.50521Q1009.53125 116.03646 1009.21875 116.50521Q1008.9219 116.958336 1008.34375 117.22396Q1007.7656 117.47396 1007.03125 117.47396Q1005.8125 117.47396 1005.1719 116.97396Q1004.5469 116.458336 1004.375 115.47396ZM1013.09375 116.395836L1013.25 117.31771Q1012.7969 117.41146 1012.4531 117.41146Q1011.875 117.41146 1011.5625 117.239586Q1011.25 117.052086 1011.1094 116.75521Q1010.9844 116.458336 1010.9844 115.50521L1010.9844 111.927086L1010.21875 111.927086L1010.21875 111.114586L1010.9844 111.114586L1010.9844 109.56771L1012.03125 108.94271L1012.03125 111.114586L1013.09375 111.114586L1013.09375 111.927086L1012.03125 111.927086L1012.03125 115.56771Q1012.03125 116.020836 1012.0781 116.145836Q1012.1406 116.270836 1012.2656 116.34896Q1012.3906 116.427086 1012.625 116.427086Q1012.8125 116.427086 1013.09375 116.395836ZM1018.0469 115.333336L1019.1406 115.458336Q1018.8906 116.41146 1018.1875 116.94271Q1017.4844 117.47396 1016.40625 117.47396Q1015.0469 117.47396 1014.2344 116.63021Q1013.4375 115.78646 1013.4375 114.270836Q1013.4375 112.708336 1014.25 111.84896Q1015.0625 110.97396 1016.34375 110.97396Q1017.59375 110.97396 1018.375 111.81771Q1019.1719 112.66146 1019.1719 114.208336Q1019.1719 114.302086 1019.1719 114.489586L1014.53125 114.489586Q1014.59375 115.520836 1015.1094 116.06771Q1015.625 116.59896 1016.40625 116.59896Q1016.9844 116.59896 1017.3906 116.302086Q1017.8125 115.989586 1018.0469 115.333336ZM1014.59375 113.63021L1018.0625 113.63021Q1018.0 112.833336 1017.6719 112.44271Q1017.15625 111.833336 1016.3594 111.833336Q1015.625 111.833336 1015.125 112.31771Q1014.6406 112.802086 1014.59375 113.63021ZM1020.78125 117.333336L1020.78125 111.114586L1021.7344 111.114586L1021.7344 112.052086Q1022.09375 111.395836 1022.3906 111.19271Q1022.7031 110.97396 1023.0781 110.97396Q1023.6094 110.97396 1024.1562 111.302086L1023.7969 112.28646Q1023.40625 112.052086 1023.03125 112.052086Q1022.6719 112.052086 1022.3906 112.270836Q1022.125 112.47396 1022.0156 112.84896Q1021.8281 113.41146 1021.8281 114.06771L1021.8281 117.333336L1020.78125 117.333336Z" fill-rule="nonzero"/><path fill="#fbbc04" d="M989.0 137.33333C989.0 140.64705 986.3137 143.33333 983.0 143.33333C979.6863 143.33333 977.0 140.64705 977.0 137.33333C977.0 134.01962 979.6863 131.33333 983.0 131.33333C986.3137 131.33333 989.0 134.01962 989.0 137.33333Z" fill-rule="nonzero"/><path fill="#1a1a1a" d="M997.78125 141.33333L997.78125 135.11458L998.7344 135.11458L998.7344 136.05208Q999.09375 135.39583 999.3906 135.1927Q999.7031 134.97395 1000.0781 134.97395Q1000.6094 134.97395 1001.15625 135.30208L1000.7969 136.28645Q1000.40625 136.05208 1000.03125 136.05208Q999.6719 136.05208 999.3906 136.27083Q999.125 136.47395 999.0156 136.84895Q998.8281 137.41145 998.8281 138.0677L998.8281 141.33333L997.78125 141.33333ZM1006.0469 139.33333L1007.1406 139.45833Q1006.8906 140.41145 1006.1875 140.9427Q1005.4844 141.47395 1004.40625 141.47395Q1003.0469 141.47395 1002.2344 140.6302Q1001.4375 139.78645 1001.4375 138.27083Q1001.4375 136.70833 1002.25 135.84895Q1003.0625 134.97395 1004.34375 134.97395Q1005.59375 134.97395 1006.375 135.8177Q1007.1719 136.66145 1007.1719 138.20833Q1007.1719 138.30208 1007.1719 138.48958L1002.53125 138.48958Q1002.59375 139.52083 1003.1094 140.0677Q1003.625 140.59895 1004.40625 140.59895Q1004.9844 140.59895 1005.3906 140.30208Q1005.8125 139.98958 1006.0469 139.33333ZM1002.59375 137.6302L1006.0625 137.6302Q1006.0 136.83333 1005.6719 136.4427Q1005.15625 135.83333 1004.3594 135.83333Q1003.625 135.83333 1003.125 136.3177Q1002.6406 136.80208 1002.59375 137.6302ZM1012.8281 141.33333L1012.8281 140.55208Q1012.2344 141.47395 1011.09375 141.47395Q1010.34375 141.47395 1009.71875 141.0677Q1009.09375 140.64583 1008.75 139.91145Q1008.40625 139.17708 1008.40625 138.22395Q1008.40625 137.30208 1008.71875 136.53645Q1009.03125 135.77083 1009.65625 135.3802Q1010.28125 134.97395 1011.0469 134.97395Q1011.6094 134.97395 1012.0469 135.20833Q1012.4844 135.4427 1012.7656 135.8177L1012.7656 132.73958L1013.8125 132.73958L1013.8125 141.33333L1012.8281 141.33333ZM1009.5 138.22395Q1009.5 139.42708 1010.0 140.02083Q1010.5 140.59895 1011.1875 140.59895Q1011.875 140.59895 1012.3594 140.03645Q1012.84375 139.47395 1012.84375 138.3177Q1012.84375 137.03645 1012.34375 136.4427Q1011.8594 135.84895 1011.1406 135.84895Q1010.4375 135.84895 1009.96875 136.42708Q1009.5 136.98958 1009.5 138.22395ZM1015.7969 133.95833L1015.7969 132.73958L1016.8594 132.73958L1016.8594 133.95833L1015.7969 133.95833ZM1015.7969 141.33333L1015.7969 135.11458L1016.8594 135.11458L1016.8594 141.33333L1015.7969 141.33333ZM1018.375 139.47395L1019.40625 139.3177Q1019.5 139.9427 1019.8906 140.27083Q1020.2969 140.59895 1021.03125 140.59895Q1021.75 140.59895 1022.09375 140.3177Q1022.4531 140.02083 1022.4531 139.61458Q1022.4531 139.2552 1022.1406 139.05208Q1021.9219 138.91145 1021.0625 138.6927Q1019.90625 138.39583 1019.4531 138.1927Q1019.0156 137.97395 1018.78125 137.59895Q1018.5469 137.22395 1018.5469 136.7552Q1018.5469 136.34895 1018.7344 135.98958Q1018.9219 135.6302 1019.25 135.39583Q1019.5 135.22395 1019.9219 135.09895Q1020.34375 134.97395 1020.84375 134.97395Q1021.5625 134.97395 1022.1094 135.1927Q1022.6719 135.39583 1022.9375 135.7552Q1023.2031 136.11458 1023.2969 136.70833L1022.2656 136.84895Q1022.2031 136.3802 1021.8594 136.11458Q1021.53125 135.83333 1020.90625 135.83333Q1020.1875 135.83333 1019.875 136.08333Q1019.5625 136.3177 1019.5625 136.64583Q1019.5625 136.84895 1019.6875 137.0052Q1019.8281 137.17708 1020.09375 137.28645Q1020.25 137.34895 1021.03125 137.55208Q1022.15625 137.86458 1022.59375 138.05208Q1023.03125 138.23958 1023.28125 138.59895Q1023.53125 138.95833 1023.53125 139.5052Q1023.53125 140.03645 1023.21875 140.5052Q1022.9219 140.95833 1022.34375 141.22395Q1021.7656 141.47395 1021.03125 141.47395Q1019.8125 141.47395 1019.1719 140.97395Q1018.5469 140.45833 1018.375 139.47395ZM1024.375 138.7552L1024.375 137.6927L1027.625 137.6927L1027.625 138.7552L1024.375 138.7552ZM1032.8594 139.05208L1033.8906 139.1927Q1033.7188 140.2552 1033.0156 140.86458Q1032.3125 141.47395 1031.2969 141.47395Q1030.0156 141.47395 1029.2344 140.64583Q1028.4688 139.80208 1028.4688 138.23958Q1028.4688 137.23958 1028.7969 136.48958Q1029.1406 135.72395 1029.8125 135.34895Q1030.5 134.97395 1031.3125 134.97395Q1032.3125 134.97395 1032.9531 135.48958Q1033.6094 135.98958 1033.7969 136.9427L1032.7656 137.09895Q1032.625 136.47395 1032.25 136.16145Q1031.875 135.83333 1031.3438 135.83333Q1030.5469 135.83333 1030.0469 136.41145Q1029.5469 136.97395 1029.5469 138.20833Q1029.5469 139.47395 1030.0312 140.03645Q1030.5156 140.59895 1031.2812 140.59895Q1031.9062 140.59895 1032.3125 140.22395Q1032.7344 139.84895 1032.8594 139.05208ZM1034.7656 141.33333L1034.7656 132.73958L1035.8281 132.73958L1035.8281 141.33333L1034.7656 141.33333ZM1041.875 141.33333L1041.875 140.41145Q1041.1406 141.47395 1039.8906 141.47395Q1039.3438 141.47395 1038.8594 141.27083Q1038.3906 141.05208 1038.1562 140.73958Q1037.9219 140.41145 1037.8281 139.9427Q1037.7656 139.64583 1037.7656 138.95833L1037.7656 135.11458L1038.8281 135.11458L1038.8281 138.5677Q1038.8281 139.3802 1038.8906 139.67708Q1038.9844 140.08333 1039.2969 140.33333Q1039.625 140.5677 1040.1094 140.5677Q1040.5781 140.5677 1040.9844 140.33333Q1041.4062 140.08333 1041.5781 139.66145Q1041.7656 139.23958 1041.7656 138.4427L1041.7656 135.11458L1042.8125 135.11458L1042.8125 141.33333L1041.875 141.33333ZM1044.375 139.47395L1045.4062 139.3177Q1045.5 139.9427 1045.8906 140.27083Q1046.2969 140.59895 1047.0312 140.59895Q1047.75 140.59895 1048.0938 140.3177Q1048.4531 140.02083 1048.4531 139.61458Q1048.4531 139.2552 1048.1406 139.05208Q1047.9219 138.91145 1047.0625 138.6927Q1045.9062 138.39583 1045.4531 138.1927Q1045.0156 137.97395 1044.7812 137.59895Q1044.5469 137.22395 1044.5469 136.7552Q1044.5469 136.34895 1044.7344 135.98958Q1044.9219 135.6302 1045.25 135.39583Q1045.5 135.22395 1045.9219 135.09895Q1046.3438 134.97395 1046.8438 134.97395Q1047.5625 134.97395 1048.1094 135.1927Q1048.6719 135.39583 1048.9375 135.7552Q1049.2031 136.11458 1049.2969 136.70833L1048.2656 136.84895Q1048.2031 136.3802 1047.8594 136.11458Q1047.5312 135.83333 1046.9062 135.83333Q1046.1875 135.83333 1045.875 136.08333Q1045.5625 136.3177 1045.5625 136.64583Q1045.5625 136.84895 1045.6875 137.0052Q1045.8281 137.17708 1046.0938 137.28645Q1046.25 137.34895 1047.0312 137.55208Q1048.1562 137.86458 1048.5938 138.05208Q1049.0312 138.23958 1049.2812 138.59895Q1049.5312 138.95833 1049.5312 139.5052Q1049.5312 140.03645 1049.2188 140.5052Q1048.9219 140.95833 1048.3438 141.22395Q1047.7656 141.47395 1047.0312 141.47395Q1045.8125 141.47395 1045.1719 140.97395Q1044.5469 140.45833 1044.375 139.47395ZM1053.0938 140.39583L1053.25 141.3177Q1052.7969 141.41145 1052.4531 141.41145Q1051.875 141.41145 1051.5625 141.23958Q1051.25 141.05208 1051.1094 140.7552Q1050.9844 140.45833 1050.9844 139.5052L1050.9844 135.92708L1050.2188 135.92708L1050.2188 135.11458L1050.9844 135.11458L1050.9844 133.5677L1052.0312 132.9427L1052.0312 135.11458L1053.0938 135.11458L1053.0938 135.92708L1052.0312 135.92708L1052.0312 139.5677Q1052.0312 140.02083 1052.0781 140.14583Q1052.1406 140.27083 1052.2656 140.34895Q1052.3906 140.42708 1052.625 140.42708Q1052.8125 140.42708 1053.0938 140.39583ZM1058.0469 139.33333L1059.1406 139.45833Q1058.8906 140.41145 1058.1875 140.9427Q1057.4844 141.47395 1056.4062 141.47395Q1055.0469 141.47395 1054.2344 140.6302Q1053.4375 139.78645 1053.4375 138.27083Q1053.4375 136.70833 1054.25 135.84895Q1055.0625 134.97395 1056.3438 134.97395Q1057.5938 134.97395 1058.375 135.8177Q1059.1719 136.66145 1059.1719 138.20833Q1059.1719 138.30208 1059.1719 138.48958L1054.5312 138.48958Q1054.5938 139.52083 1055.1094 140.0677Q1055.625 140.59895 1056.4062 140.59895Q1056.9844 140.59895 1057.3906 140.30208Q1057.8125 139.98958 1058.0469 139.33333ZM1054.5938 137.6302L1058.0625 137.6302Q1058.0 136.83333 1057.6719 136.4427Q1057.1562 135.83333 1056.3594 135.83333Q1055.625 135.83333 1055.125 136.3177Q1054.6406 136.80208 1054.5938 137.6302ZM1060.7812 141.33333L1060.7812 135.11458L1061.7344 135.11458L1061.7344 136.05208Q1062.0938 135.39583 1062.3906 135.1927Q1062.7031 134.97395 1063.0781 134.97395Q1063.6094 134.97395 1064.1562 135.30208L1063.7969 136.28645Q1063.4062 136.05208 1063.0312 136.05208Q1062.6719 136.05208 1062.3906 136.27083Q1062.125 136.47395 1062.0156 136.84895Q1061.8281 137.41145 1061.8281 138.0677L1061.8281 141.33333L1060.7812 141.33333ZM1064.375 138.7552L1064.375 137.6927L1067.625 137.6927L1067.625 138.7552L1064.375 138.7552ZM1068.7969 143.72395L1068.7969 135.11458L1069.75 135.11458L1069.75 135.91145Q1070.0938 135.4427 1070.5156 135.20833Q1070.9531 134.97395 1071.5625 134.97395Q1072.3594 134.97395 1072.9688 135.3802Q1073.5781 135.78645 1073.875 136.53645Q1074.1875 137.28645 1074.1875 138.17708Q1074.1875 139.1302 1073.8438 139.89583Q1073.5156 140.66145 1072.8594 141.0677Q1072.2031 141.47395 1071.4844 141.47395Q1070.9531 141.47395 1070.5312 141.2552Q1070.1094 141.02083 1069.8438 140.6927L1069.8438 143.72395L1068.7969 143.72395ZM1069.75 138.2552Q1069.75 139.45833 1070.2344 140.03645Q1070.7188 140.59895 1071.4062 140.59895Q1072.1094 140.59895 1072.6094 140.0052Q1073.1094 139.41145 1073.1094 138.16145Q1073.1094 136.97395 1072.625 136.39583Q1072.1406 135.80208 1071.4531 135.80208Q1070.7812 135.80208 1070.2656 136.42708Q1069.75 137.05208 1069.75 138.2552ZM1075.7812 141.33333L1075.7812 135.11458L1076.7344 135.11458L1076.7344 136.05208Q1077.0938 135.39583 1077.3906 135.1927Q1077.7031 134.97395 1078.0781 134.97395Q1078.6094 134.97395 1079.1562 135.30208L1078.7969 136.28645Q1078.4062 136.05208 1078.0312 136.05208Q1077.6719 136.05208 1077.3906 136.27083Q1077.125 136.47395 1077.0156 136.84895Q1076.8281 137.41145 1076.8281 138.0677L1076.8281 141.33333L1075.7812 141.33333ZM1079.4062 138.22395Q1079.4062 136.48958 1080.3594 135.66145Q1081.1562 134.97395 1082.3125 134.97395Q1083.5938 134.97395 1084.4062 135.8177Q1085.2344 136.64583 1085.2344 138.1302Q1085.2344 139.33333 1084.875 140.02083Q1084.5156 140.70833 1083.8125 141.09895Q1083.125 141.47395 1082.3125 141.47395Q1081.0156 141.47395 1080.2031 140.64583Q1079.4062 139.80208 1079.4062 138.22395ZM1080.4844 138.22395Q1080.4844 139.41145 1081.0 140.0052Q1081.5312 140.59895 1082.3125 140.59895Q1083.1094 140.59895 1083.625 140.0052Q1084.1406 139.41145 1084.1406 138.1927Q1084.1406 137.03645 1083.6094 136.4427Q1083.0938 135.84895 1082.3125 135.84895Q1081.5312 135.84895 1081.0 136.4427Q1080.4844 137.02083 1080.4844 138.22395ZM1086.0938 141.33333L1088.3594 138.09895L1086.2656 135.11458L1087.5781 135.11458L1088.5312 136.5677Q1088.7969 136.98958 1088.9688 137.27083Q1089.2188 136.8802 1089.4375 136.58333L1090.4844 135.11458L1091.75 135.11458L1089.5938 138.03645L1091.9062 141.33333L1090.625 141.33333L1089.3438 139.39583L1089.0 138.8802L1087.3594 141.33333L1086.0938 141.33333ZM1092.75 143.72395L1092.625 142.73958Q1092.9688 142.83333 1093.2344 142.83333Q1093.5781 142.83333 1093.7812 142.70833Q1094.0 142.59895 1094.1406 142.39583Q1094.2344 142.22395 1094.4688 141.59895Q1094.4844 141.52083 1094.5625 141.34895L1092.1875 135.11458L1093.3281 135.11458L1094.625 138.70833Q1094.875 139.39583 1095.0781 140.16145Q1095.2656 139.42708 1095.5156 138.73958L1096.8438 135.11458L1097.8906 135.11458L1095.5312 141.4427Q1095.1406 142.45833 1094.9375 142.84895Q1094.6562 143.3802 1094.2812 143.61458Q1093.9219 143.86458 1093.4219 143.86458Q1093.125 143.86458 1092.75 143.72395Z" fill-rule="nonzero"/><path fill="#34a853" d="M989.0 161.33333C989.0 164.64705 986.3137 167.33333 983.0 167.33333C979.6863 167.33333 977.0 164.64705 977.0 161.33333C977.0 158.01962 979.6863 155.33333 983.0 155.33333C986.3137 155.33333 989.0 158.01962 989.0 161.33333Z" fill-rule="nonzero"/><path fill="#1a1a1a" d="M1001.8594 163.05208L1002.8906 163.1927Q1002.71875 164.2552 1002.0156 164.86458Q1001.3125 165.47395 1000.2969 165.47395Q999.0156 165.47395 998.2344 164.64583Q997.46875 163.80208 997.46875 162.23958Q997.46875 161.23958 997.7969 160.48958Q998.1406 159.72395 998.8125 159.34895Q999.5 158.97395 1000.3125 158.97395Q1001.3125 158.97395 1001.9531 159.48958Q1002.6094 159.98958 1002.7969 160.9427L1001.7656 161.09895Q1001.625 160.47395 1001.25 160.16145Q1000.875 159.83333 1000.34375 159.83333Q999.5469 159.83333 999.0469 160.41145Q998.5469 160.97395 998.5469 162.20833Q998.5469 163.47395 999.03125 164.03645Q999.5156 164.59895 1000.28125 164.59895Q1000.90625 164.59895 1001.3125 164.22395Q1001.7344 163.84895 1001.8594 163.05208ZM1003.40625 162.22395Q1003.40625 160.48958 1004.3594 159.66145Q1005.15625 158.97395 1006.3125 158.97395Q1007.59375 158.97395 1008.40625 159.8177Q1009.2344 160.64583 1009.2344 162.1302Q1009.2344 163.33333 1008.875 164.02083Q1008.5156 164.70833 1007.8125 165.09895Q1007.125 165.47395 1006.3125 165.47395Q1005.0156 165.47395 1004.2031 164.64583Q1003.40625 163.80208 1003.40625 162.22395ZM1004.4844 162.22395Q1004.4844 163.41145 1005.0 164.0052Q1005.53125 164.59895 1006.3125 164.59895Q1007.1094 164.59895 1007.625 164.0052Q1008.1406 163.41145 1008.1406 162.1927Q1008.1406 161.03645 1007.6094 160.4427Q1007.09375 159.84895 1006.3125 159.84895Q1005.53125 159.84895 1005.0 160.4427Q1004.4844 161.02083 1004.4844 162.22395ZM1010.78125 165.33333L1010.78125 159.11458L1011.7344 159.11458L1011.7344 160.05208Q1012.09375 159.39583 1012.3906 159.1927Q1012.7031 158.97395 1013.0781 158.97395Q1013.6094 158.97395 1014.15625 159.30208L1013.7969 160.28645Q1013.40625 160.05208 1013.03125 160.05208Q1012.6719 160.05208 1012.3906 160.27083Q1012.125 160.47395 1012.0156 160.84895Q1011.8281 161.41145 1011.8281 162.0677L1011.8281 165.33333L1010.78125 165.33333ZM1016.5156 165.33333L1014.15625 159.11458L1015.2656 159.11458L1016.6094 162.83333Q1016.8125 163.4427 1017.0 164.08333Q1017.1406 163.59895 1017.3906 162.91145L1018.78125 159.11458L1019.8594 159.11458L1017.5 165.33333L1016.5156 165.33333ZM1024.875 165.33333L1024.875 164.41145Q1024.1406 165.47395 1022.8906 165.47395Q1022.34375 165.47395 1021.8594 165.27083Q1021.3906 165.05208 1021.15625 164.73958Q1020.9219 164.41145 1020.8281 163.9427Q1020.7656 163.64583 1020.7656 162.95833L1020.7656 159.11458L1021.8281 159.11458L1021.8281 162.5677Q1021.8281 163.3802 1021.8906 163.67708Q1021.9844 164.08333 1022.2969 164.33333Q1022.625 164.5677 1023.1094 164.5677Q1023.5781 164.5677 1023.9844 164.33333Q1024.4062 164.08333 1024.5781 163.66145Q1024.7656 163.23958 1024.7656 162.4427L1024.7656 159.11458L1025.8125 159.11458L1025.8125 165.33333L1024.875 165.33333ZM1027.375 163.47395L1028.4062 163.3177Q1028.5 163.9427 1028.8906 164.27083Q1029.2969 164.59895 1030.0312 164.59895Q1030.75 164.59895 1031.0938 164.3177Q1031.4531 164.02083 1031.4531 163.61458Q1031.4531 163.2552 1031.1406 163.05208Q1030.9219 162.91145 1030.0625 162.6927Q1028.9062 162.39583 1028.4531 162.1927Q1028.0156 161.97395 1027.7812 161.59895Q1027.5469 161.22395 1027.5469 160.7552Q1027.5469 160.34895 1027.7344 159.98958Q1027.9219 159.6302 1028.25 159.39583Q1028.5 159.22395 1028.9219 159.09895Q1029.3438 158.97395 1029.8438 158.97395Q1030.5625 158.97395 1031.1094 159.1927Q1031.6719 159.39583 1031.9375 159.7552Q1032.2031 160.11458 1032.2969 160.70833L1031.2656 160.84895Q1031.2031 160.3802 1030.8594 160.11458Q1030.5312 159.83333 1029.9062 159.83333Q1029.1875 159.83333 1028.875 160.08333Q1028.5625 160.3177 1028.5625 160.64583Q1028.5625 160.84895 1028.6875 161.0052Q1028.8281 161.17708 1029.0938 161.28645Q1029.25 161.34895 1030.0312 161.55208Q1031.1562 161.86458 1031.5938 162.05208Q1032.0312 162.23958 1032.2812 162.59895Q1032.5312 162.95833 1032.5312 163.5052Q1032.5312 164.03645 1032.2188 164.5052Q1031.9219 164.95833 1031.3438 165.22395Q1030.7656 165.47395 1030.0312 165.47395Q1028.8125 165.47395 1028.1719 164.97395Q1027.5469 164.45833 1027.375 163.47395Z" fill-rule="nonzero"/><path fill="#ff6d01" d="M989.0 185.33333C989.0 188.64705 986.3137 191.33333 983.0 191.33333C979.6863 191.33333 977.0 188.64705 977.0 185.33333C977.0 182.01962 979.6863 179.33333 983.0 179.33333C986.3137 179.33333 989.0 182.01962 989.0 185.33333Z" fill-rule="nonzero"/><path fill="#1a1a1a" d="M1000.09375 188.39583L1000.25 189.3177Q999.7969 189.41145 999.4531 189.41145Q998.875 189.41145 998.5625 189.23958Q998.25 189.05208 998.1094 188.7552Q997.9844 188.45833 997.9844 187.5052L997.9844 183.92708L997.21875 183.92708L997.21875 183.11458L997.9844 183.11458L997.9844 181.5677L999.03125 180.9427L999.03125 183.11458L1000.09375 183.11458L1000.09375 183.92708L999.03125 183.92708L999.03125 187.5677Q999.03125 188.02083 999.0781 188.14583Q999.1406 188.27083 999.2656 188.34895Q999.3906 188.42708 999.625 188.42708Q999.8125 188.42708 1000.09375 188.39583ZM1001.9375 189.33333L1000.03125 183.11458L1001.125 183.11458L1002.1094 186.70833L1002.4844 188.03645Q1002.5156 187.9427 1002.8125 186.7552L1003.7969 183.11458L1004.875 183.11458L1005.8125 186.72395L1006.125 187.91145L1006.4844 186.70833L1007.5469 183.11458L1008.5781 183.11458L1006.625 189.33333L1005.53125 189.33333L1004.5469 185.59895L1004.2969 184.55208L1003.0469 189.33333L1001.9375 189.33333ZM1014.0469 187.33333L1015.1406 187.45833Q1014.8906 188.41145 1014.1875 188.9427Q1013.4844 189.47395 1012.40625 189.47395Q1011.0469 189.47395 1010.2344 188.6302Q1009.4375 187.78645 1009.4375 186.27083Q1009.4375 184.70833 1010.25 183.84895Q1011.0625 182.97395 1012.34375 182.97395Q1013.59375 182.97395 1014.375 183.8177Q1015.1719 184.66145 1015.1719 186.20833Q1015.1719 186.30208 1015.1719 186.48958L1010.53125 186.48958Q1010.59375 187.52083 1011.1094 188.0677Q1011.625 188.59895 1012.40625 188.59895Q1012.9844 188.59895 1013.3906 188.30208Q1013.8125 187.98958 1014.0469 187.33333ZM1010.59375 185.6302L1014.0625 185.6302Q1014.0 184.83333 1013.6719 184.4427Q1013.15625 183.83333 1012.3594 183.83333Q1011.625 183.83333 1011.125 184.3177Q1010.6406 184.80208 1010.59375 185.6302ZM1016.7969 189.33333L1016.7969 183.11458L1017.7344 183.11458L1017.7344 183.98958Q1018.03125 183.52083 1018.5156 183.2552Q1019.0 182.97395 1019.625 182.97395Q1020.3125 182.97395 1020.75 183.2552Q1021.2031 183.53645 1021.375 184.05208Q1022.125 182.97395 1023.2969 182.97395Q1024.2344 182.97395 1024.7188 183.48958Q1025.2188 183.98958 1025.2188 185.0677L1025.2188 189.33333L1024.1719 189.33333L1024.1719 185.41145Q1024.1719 184.78645 1024.0625 184.5052Q1023.96875 184.22395 1023.7031 184.05208Q1023.4375 183.8802 1023.0625 183.8802Q1022.40625 183.8802 1021.96875 184.3177Q1021.5469 184.7552 1021.5469 185.72395L1021.5469 189.33333L1020.4844 189.33333L1020.4844 185.28645Q1020.4844 184.58333 1020.21875 184.23958Q1019.96875 183.8802 1019.3906 183.8802Q1018.9375 183.8802 1018.5625 184.11458Q1018.1875 184.34895 1018.0156 184.80208Q1017.84375 185.2552 1017.84375 186.09895L1017.84375 189.33333L1016.7969 189.33333ZM1026.7969 191.72395L1026.7969 183.11458L1027.75 183.11458L1027.75 183.91145Q1028.0938 183.4427 1028.5156 183.20833Q1028.9531 182.97395 1029.5625 182.97395Q1030.3594 182.97395 1030.9688 183.3802Q1031.5781 183.78645 1031.875 184.53645Q1032.1875 185.28645 1032.1875 186.17708Q1032.1875 187.1302 1031.8438 187.89583Q1031.5156 188.66145 1030.8594 189.0677Q1030.2031 189.47395 1029.4844 189.47395Q1028.9531 189.47395 1028.5312 189.2552Q1028.1094 189.02083 1027.8438 188.6927L1027.8438 191.72395L1026.7969 191.72395ZM1027.75 186.2552Q1027.75 187.45833 1028.2344 188.03645Q1028.7188 188.59895 1029.4062 188.59895Q1030.1094 188.59895 1030.6094 188.0052Q1031.1094 187.41145 1031.1094 186.16145Q1031.1094 184.97395 1030.625 184.39583Q1030.1406 183.80208 1029.4531 183.80208Q1028.7812 183.80208 1028.2656 184.42708Q1027.75 185.05208 1027.75 186.2552ZM1033.7812 189.33333L1033.7812 183.11458L1034.7344 183.11458L1034.7344 184.05208Q1035.0938 183.39583 1035.3906 183.1927Q1035.7031 182.97395 1036.0781 182.97395Q1036.6094 182.97395 1037.1562 183.30208L1036.7969 184.28645Q1036.4062 184.05208 1036.0312 184.05208Q1035.6719 184.05208 1035.3906 184.27083Q1035.125 184.47395 1035.0156 184.84895Q1034.8281 185.41145 1034.8281 186.0677L1034.8281 189.33333L1033.7812 189.33333ZM1037.4062 186.22395Q1037.4062 184.48958 1038.3594 183.66145Q1039.1562 182.97395 1040.3125 182.97395Q1041.5938 182.97395 1042.4062 183.8177Q1043.2344 184.64583 1043.2344 186.1302Q1043.2344 187.33333 1042.875 188.02083Q1042.5156 188.70833 1041.8125 189.09895Q1041.125 189.47395 1040.3125 189.47395Q1039.0156 189.47395 1038.2031 188.64583Q1037.4062 187.80208 1037.4062 186.22395ZM1038.4844 186.22395Q1038.4844 187.41145 1039.0 188.0052Q1039.5312 188.59895 1040.3125 188.59895Q1041.1094 188.59895 1041.625 188.0052Q1042.1406 187.41145 1042.1406 186.1927Q1042.1406 185.03645 1041.6094 184.4427Q1041.0938 183.84895 1040.3125 183.84895Q1039.5312 183.84895 1039.0 184.4427Q1038.4844 185.02083 1038.4844 186.22395ZM1044.0938 189.33333L1046.3594 186.09895L1044.2656 183.11458L1045.5781 183.11458L1046.5312 184.5677Q1046.7969 184.98958 1046.9688 185.27083Q1047.2188 184.8802 1047.4375 184.58333L1048.4844 183.11458L1049.75 183.11458L1047.5938 186.03645L1049.9062 189.33333L1048.625 189.33333L1047.3438 187.39583L1047.0 186.8802L1045.3594 189.33333L1044.0938 189.33333ZM1050.75 191.72395L1050.625 190.73958Q1050.9688 190.83333 1051.2344 190.83333Q1051.5781 190.83333 1051.7812 190.70833Q1052.0 190.59895 1052.1406 190.39583Q1052.2344 190.22395 1052.4688 189.59895Q1052.4844 189.52083 1052.5625 189.34895L1050.1875 183.11458L1051.3281 183.11458L1052.625 186.70833Q1052.875 187.39583 1053.0781 188.16145Q1053.2656 187.42708 1053.5156 186.73958L1054.8438 183.11458L1055.8906 183.11458L1053.5312 189.4427Q1053.1406 190.45833 1052.9375 190.84895Q1052.6562 191.3802 1052.2812 191.61458Q1051.9219 191.86458 1051.4219 191.86458Q1051.125 191.86458 1050.75 191.72395Z" fill-rule="nonzero"/><path fill="#46bdc6" d="M989.0 209.33333C989.0 212.64705 986.3137 215.33333 983.0 215.33333C979.6863 215.33333 977.0 212.64705 977.0 209.33333C977.0 206.01962 979.6863 203.33333 983.0 203.33333C986.3137 203.33333 989.0 206.01962 989.0 209.33333Z" fill-rule="nonzero"/><path fill="#1a1a1a" d="M997.7969 215.72395L997.7969 207.11458L998.75 207.11458L998.75 207.91145Q999.09375 207.4427 999.5156 207.20833Q999.9531 206.97395 1000.5625 206.97395Q1001.3594 206.97395 1001.96875 207.3802Q1002.5781 207.78645 1002.875 208.53645Q1003.1875 209.28645 1003.1875 210.17708Q1003.1875 211.1302 1002.84375 211.89583Q1002.5156 212.66145 1001.8594 213.0677Q1001.2031 213.47395 1000.4844 213.47395Q999.9531 213.47395 999.53125 213.2552Q999.1094 213.02083 998.84375 212.6927L998.84375 215.72395L997.7969 215.72395ZM998.75 210.2552Q998.75 211.45833 999.2344 212.03645Q999.71875 212.59895 1000.40625 212.59895Q1001.1094 212.59895 1001.6094 212.0052Q1002.1094 211.41145 1002.1094 210.16145Q1002.1094 208.97395 1001.625 208.39583Q1001.1406 207.80208 1000.4531 207.80208Q999.78125 207.80208 999.2656 208.42708Q998.75 209.05208 998.75 210.2552ZM1004.78125 213.33333L1004.78125 207.11458L1005.7344 207.11458L1005.7344 208.05208Q1006.09375 207.39583 1006.3906 207.1927Q1006.7031 206.97395 1007.0781 206.97395Q1007.6094 206.97395 1008.15625 207.30208L1007.7969 208.28645Q1007.40625 208.05208 1007.03125 208.05208Q1006.6719 208.05208 1006.3906 208.27083Q1006.125 208.47395 1006.0156 208.84895Q1005.8281 209.41145 1005.8281 210.0677L1005.8281 213.33333L1004.78125 213.33333ZM1013.0469 211.33333L1014.1406 211.45833Q1013.8906 212.41145 1013.1875 212.9427Q1012.4844 213.47395 1011.40625 213.47395Q1010.0469 213.47395 1009.2344 212.6302Q1008.4375 211.78645 1008.4375 210.27083Q1008.4375 208.70833 1009.25 207.84895Q1010.0625 206.97395 1011.34375 206.97395Q1012.59375 206.97395 1013.375 207.8177Q1014.1719 208.66145 1014.1719 210.20833Q1014.1719 210.30208 1014.1719 210.48958L1009.53125 210.48958Q1009.59375 211.52083 1010.1094 212.0677Q1010.625 212.59895 1011.40625 212.59895Q1011.9844 212.59895 1012.3906 212.30208Q1012.8125 211.98958 1013.0469 211.33333ZM1009.59375 209.6302L1013.0625 209.6302Q1013.0 208.83333 1012.6719 208.4427Q1012.15625 207.83333 1011.3594 207.83333Q1010.625 207.83333 1010.125 208.3177Q1009.6406 208.80208 1009.59375 209.6302ZM1019.8281 213.33333L1019.8281 212.55208Q1019.2344 213.47395 1018.09375 213.47395Q1017.34375 213.47395 1016.71875 213.0677Q1016.09375 212.64583 1015.75 211.91145Q1015.40625 211.17708 1015.40625 210.22395Q1015.40625 209.30208 1015.71875 208.53645Q1016.03125 207.77083 1016.65625 207.3802Q1017.28125 206.97395 1018.0469 206.97395Q1018.6094 206.97395 1019.0469 207.20833Q1019.4844 207.4427 1019.7656 207.8177L1019.7656 204.73958L1020.8125 204.73958L1020.8125 213.33333L1019.8281 213.33333ZM1016.5 210.22395Q1016.5 211.42708 1017.0 212.02083Q1017.5 212.59895 1018.1875 212.59895Q1018.875 212.59895 1019.3594 212.03645Q1019.84375 211.47395 1019.84375 210.3177Q1019.84375 209.03645 1019.34375 208.4427Q1018.8594 207.84895 1018.1406 207.84895Q1017.4375 207.84895 1016.96875 208.42708Q1016.5 208.98958 1016.5 210.22395ZM1022.7969 205.95833L1022.7969 204.73958L1023.8594 204.73958L1023.8594 205.95833L1022.7969 205.95833ZM1022.7969 213.33333L1022.7969 207.11458L1023.8594 207.11458L1023.8594 213.33333L1022.7969 213.33333ZM1025.0938 213.33333L1027.3594 210.09895L1025.2656 207.11458L1026.5781 207.11458L1027.5312 208.5677Q1027.7969 208.98958 1027.9688 209.27083Q1028.2188 208.8802 1028.4375 208.58333L1029.4844 207.11458L1030.75 207.11458L1028.5938 210.03645L1030.9062 213.33333L1029.625 213.33333L1028.3438 211.39583L1028.0 210.8802L1026.3594 213.33333L1025.0938 213.33333ZM1031.75 215.72395L1031.625 214.73958Q1031.9688 214.83333 1032.2344 214.83333Q1032.5781 214.83333 1032.7812 214.70833Q1033.0 214.59895 1033.1406 214.39583Q1033.2344 214.22395 1033.4688 213.59895Q1033.4844 213.52083 1033.5625 213.34895L1031.1875 207.11458L1032.3281 207.11458L1033.625 210.70833Q1033.875 211.39583 1034.0781 212.16145Q1034.2656 211.42708 1034.5156 210.73958L1035.8438 207.11458L1036.8906 207.11458L1034.5312 213.4427Q1034.1406 214.45833 1033.9375 214.84895Q1033.6562 215.3802 1033.2812 215.61458Q1032.9219 215.86458 1032.4219 215.86458Q1032.125 215.86458 1031.75 215.72395Z" fill-rule="nonzero"/><path fill="#674ea7" d="M989.0 233.33333C989.0 236.64705 986.3137 239.33333 983.0 239.33333C979.6863 239.33333 977.0 236.64705 977.0 233.33333C977.0 230.01962 979.6863 227.33333 983.0 227.33333C986.3137 227.33333 989.0 230.01962 989.0 233.33333Z" fill-rule="nonzero"/><path fill="#1a1a1a" d="M1001.8594 235.05208L1002.8906 235.1927Q1002.71875 236.2552 1002.0156 236.86458Q1001.3125 237.47395 1000.2969 237.47395Q999.0156 237.47395 998.2344 236.64583Q997.46875 235.80208 997.46875 234.23958Q997.46875 233.23958 997.7969 232.48958Q998.1406 231.72395 998.8125 231.34895Q999.5 230.97395 1000.3125 230.97395Q1001.3125 230.97395 1001.9531 231.48958Q1002.6094 231.98958 1002.7969 232.9427L1001.7656 233.09895Q1001.625 232.47395 1001.25 232.16145Q1000.875 231.83333 1000.34375 231.83333Q999.5469 231.83333 999.0469 232.41145Q998.5469 232.97395 998.5469 234.20833Q998.5469 235.47395 999.03125 236.03645Q999.5156 236.59895 1000.28125 236.59895Q1000.90625 236.59895 1001.3125 236.22395Q1001.7344 235.84895 1001.8594 235.05208ZM1003.40625 234.22395Q1003.40625 232.48958 1004.3594 231.66145Q1005.15625 230.97395 1006.3125 230.97395Q1007.59375 230.97395 1008.40625 231.8177Q1009.2344 232.64583 1009.2344 234.1302Q1009.2344 235.33333 1008.875 236.02083Q1008.5156 236.70833 1007.8125 237.09895Q1007.125 237.47395 1006.3125 237.47395Q1005.0156 237.47395 1004.2031 236.64583Q1003.40625 235.80208 1003.40625 234.22395ZM1004.4844 234.22395Q1004.4844 235.41145 1005.0 236.0052Q1005.53125 236.59895 1006.3125 236.59895Q1007.1094 236.59895 1007.625 236.0052Q1008.1406 235.41145 1008.1406 234.1927Q1008.1406 233.03645 1007.6094 232.4427Q1007.09375 231.84895 1006.3125 231.84895Q1005.53125 231.84895 1005.0 232.4427Q1004.4844 233.02083 1004.4844 234.22395ZM1014.8281 237.33333L1014.8281 236.55208Q1014.2344 237.47395 1013.09375 237.47395Q1012.34375 237.47395 1011.71875 237.0677Q1011.09375 236.64583 1010.75 235.91145Q1010.40625 235.17708 1010.40625 234.22395Q1010.40625 233.30208 1010.71875 232.53645Q1011.03125 231.77083 1011.65625 231.3802Q1012.28125 230.97395 1013.0469 230.97395Q1013.6094 230.97395 1014.0469 231.20833Q1014.4844 231.4427 1014.7656 231.8177L1014.7656 228.73958L1015.8125 228.73958L1015.8125 237.33333L1014.8281 237.33333ZM1011.5 234.22395Q1011.5 235.42708 1012.0 236.02083Q1012.5 236.59895 1013.1875 236.59895Q1013.875 236.59895 1014.3594 236.03645Q1014.84375 235.47395 1014.84375 234.3177Q1014.84375 233.03645 1014.34375 232.4427Q1013.8594 231.84895 1013.1406 231.84895Q1012.4375 231.84895 1011.96875 232.42708Q1011.5 232.98958 1011.5 234.22395ZM1017.7969 229.95833L1017.7969 228.73958L1018.8594 228.73958L1018.8594 229.95833L1017.7969 229.95833ZM1017.7969 237.33333L1017.7969 231.11458L1018.8594 231.11458L1018.8594 237.33333L1017.7969 237.33333ZM1020.375 235.47395L1021.40625 235.3177Q1021.5 235.9427 1021.8906 236.27083Q1022.2969 236.59895 1023.03125 236.59895Q1023.75 236.59895 1024.0938 236.3177Q1024.4531 236.02083 1024.4531 235.61458Q1024.4531 235.2552 1024.1406 235.05208Q1023.9219 234.91145 1023.0625 234.6927Q1021.90625 234.39583 1021.4531 234.1927Q1021.0156 233.97395 1020.78125 233.59895Q1020.5469 233.22395 1020.5469 232.7552Q1020.5469 232.34895 1020.7344 231.98958Q1020.9219 231.6302 1021.25 231.39583Q1021.5 231.22395 1021.9219 231.09895Q1022.34375 230.97395 1022.84375 230.97395Q1023.5625 230.97395 1024.1094 231.1927Q1024.6719 231.39583 1024.9375 231.7552Q1025.2031 232.11458 1025.2969 232.70833L1024.2656 232.84895Q1024.2031 232.3802 1023.8594 232.11458Q1023.53125 231.83333 1022.90625 231.83333Q1022.1875 231.83333 1021.875 232.08333Q1021.5625 232.3177 1021.5625 232.64583Q1021.5625 232.84895 1021.6875 233.0052Q1021.8281 233.17708 1022.09375 233.28645Q1022.25 233.34895 1023.03125 233.55208Q1024.1562 233.86458 1024.5938 234.05208Q1025.0312 234.23958 1025.2812 234.59895Q1025.5312 234.95833 1025.5312 235.5052Q1025.5312 236.03645 1025.2188 236.5052Q1024.9219 236.95833 1024.3438 237.22395Q1023.7656 237.47395 1023.03125 237.47395Q1021.8125 237.47395 1021.1719 236.97395Q1020.5469 236.45833 1020.375 235.47395Z" fill-rule="nonzero"/><path fill="#000000" d="M36.484375 54.0L36.484375 39.6875L39.34375 39.6875L42.71875 49.8125Q43.1875 51.234375 43.40625 51.9375Q43.65625 51.15625 44.171875 49.640625L47.59375 39.6875L50.140625 39.6875L50.140625 54.0L48.328125 54.0L48.328125 42.015625L44.15625 54.0L42.453125 54.0L38.3125 41.8125L38.3125 54.0L36.484375 54.0ZM60.09375 52.71875Q59.109375 53.546875 58.203125 53.890625Q57.296875 54.234375 56.265625 54.234375Q54.5625 54.234375 53.640625 53.40625Q52.71875 52.5625 52.71875 51.265625Q52.71875 50.5 53.0625 49.875Q53.421875 49.25 53.984375 48.875Q54.546875 48.484375 55.25 48.28125Q55.765625 48.15625 56.8125 48.015625Q58.9375 47.765625 59.9375 47.421875Q59.953125 47.0625 59.953125 46.953125Q59.953125 45.890625 59.453125 45.4375Q58.78125 44.84375 57.453125 44.84375Q56.203125 44.84375 55.609375 45.28125Q55.03125 45.71875 54.75 46.828125L53.03125 46.59375Q53.265625 45.484375 53.796875 44.8125Q54.328125 44.125 55.34375 43.765625Q56.359375 43.390625 57.703125 43.390625Q59.03125 43.390625 59.859375 43.703125Q60.6875 44.015625 61.078125 44.5Q61.46875 44.96875 61.625 45.6875Q61.71875 46.140625 61.71875 47.3125L61.71875 49.65625Q61.71875 52.109375 61.828125 52.765625Q61.9375 53.40625 62.28125 54.0L60.4375 54.0Q60.171875 53.453125 60.09375 52.71875ZM59.9375 48.796875Q58.984375 49.1875 57.0625 49.453125Q55.984375 49.609375 55.53125 49.8125Q55.09375 50.0 54.84375 50.375Q54.59375 50.75 54.59375 51.21875Q54.59375 51.921875 55.125 52.390625Q55.65625 52.859375 56.6875 52.859375Q57.703125 52.859375 58.484375 52.421875Q59.28125 51.96875 59.65625 51.203125Q59.9375 50.59375 59.9375 49.4375L59.9375 48.796875ZM63.140625 54.0L66.9375 48.609375L63.4375 43.625L65.625 43.625L67.21875 46.0625Q67.671875 46.75 67.9375 47.21875Q68.375 46.578125 68.734375 46.078125L70.484375 43.625L72.578125 43.625L69.0 48.515625L72.859375 54.0L70.703125 54.0L68.5625 50.78125L68.0 49.90625L65.28125 54.0L63.140625 54.0ZM80.46875 54.0L80.46875 39.6875L82.359375 39.6875L82.359375 52.3125L89.40625 52.3125L89.40625 54.0L80.46875 54.0ZM98.09375 52.71875Q97.109375 53.546875 96.203125 53.890625Q95.296875 54.234375 94.265625 54.234375Q92.5625 54.234375 91.640625 53.40625Q90.71875 52.5625 90.71875 51.265625Q90.71875 50.5 91.0625 49.875Q91.421875 49.25 91.984375 48.875Q92.546875 48.484375 93.25 48.28125Q93.765625 48.15625 94.8125 48.015625Q96.9375 47.765625 97.9375 47.421875Q97.953125 47.0625 97.953125 46.953125Q97.953125 45.890625 97.453125 45.4375Q96.78125 44.84375 95.453125 44.84375Q94.203125 44.84375 93.609375 45.28125Q93.03125 45.71875 92.75 46.828125L91.03125 46.59375Q91.265625 45.484375 91.796875 44.8125Q92.328125 44.125 93.34375 43.765625Q94.359375 43.390625 95.703125 43.390625Q97.03125 43.390625 97.859375 43.703125Q98.6875 44.015625 99.078125 44.5Q99.46875 44.96875 99.625 45.6875Q99.71875 46.140625 99.71875 47.3125L99.71875 49.65625Q99.71875 52.109375 99.828125 52.765625Q99.9375 53.40625 100.28125 54.0L98.4375 54.0Q98.171875 53.453125 98.09375 52.71875ZM97.9375 48.796875Q96.984375 49.1875 95.0625 49.453125Q93.984375 49.609375 93.53125 49.8125Q93.09375 50.0 92.84375 50.375Q92.59375 50.75 92.59375 51.21875Q92.59375 51.921875 93.125 52.390625Q93.65625 52.859375 94.6875 52.859375Q95.703125 52.859375 96.484375 52.421875Q97.28125 51.96875 97.65625 51.203125Q97.9375 50.59375 97.9375 49.4375L97.9375 48.796875ZM106.15625 52.421875L106.40625 53.984375Q105.671875 54.140625 105.078125 54.140625Q104.125 54.140625 103.59375 53.84375Q103.078125 53.53125 102.859375 53.046875Q102.640625 52.546875 102.640625 50.96875L102.640625 45.0L101.359375 45.0L101.359375 43.625L102.640625 43.625L102.640625 41.0625L104.390625 40.0L104.390625 43.625L106.15625 43.625L106.15625 45.0L104.390625 45.0L104.390625 51.0625Q104.390625 51.8125 104.484375 52.03125Q104.578125 52.234375 104.78125 52.375Q105.0 52.5 105.390625 52.5Q105.671875 52.5 106.15625 52.421875ZM115.421875 50.65625L117.234375 50.890625Q116.8125 52.46875 115.640625 53.359375Q114.484375 54.234375 112.671875 54.234375Q110.40625 54.234375 109.0625 52.84375Q107.734375 51.4375 107.734375 48.90625Q107.734375 46.28125 109.078125 44.84375Q110.421875 43.390625 112.578125 43.390625Q114.65625 43.390625 115.96875 44.8125Q117.296875 46.21875 117.296875 48.796875Q117.296875 48.953125 117.28125 49.265625L109.546875 49.265625Q109.640625 50.96875 110.515625 51.875Q111.390625 52.78125 112.6875 52.78125Q113.65625 52.78125 114.328125 52.28125Q115.015625 51.765625 115.421875 50.65625ZM109.640625 47.8125L115.4375 47.8125Q115.328125 46.515625 114.78125 45.859375Q113.9375 44.84375 112.59375 44.84375Q111.390625 44.84375 110.5625 45.65625Q109.734375 46.453125 109.640625 47.8125ZM119.3125 54.0L119.3125 43.625L120.90625 43.625L120.90625 45.109375Q122.046875 43.390625 124.203125 43.390625Q125.140625 43.390625 125.921875 43.734375Q126.71875 44.0625 127.109375 44.609375Q127.5 45.15625 127.65625 45.90625Q127.75 46.40625 127.75 47.625L127.75 54.0L125.984375 54.0L125.984375 47.6875Q125.984375 46.609375 125.78125 46.078125Q125.578125 45.546875 125.046875 45.234375Q124.53125 44.921875 123.828125 44.921875Q122.703125 44.921875 121.890625 45.640625Q121.078125 46.34375 121.078125 48.328125L121.078125 54.0L119.3125 54.0ZM137.09375 50.203125L138.8125 50.421875Q138.53125 52.21875 137.35938 53.234375Q136.20312 54.234375 134.5 54.234375Q132.375 54.234375 131.07812 52.84375Q129.78125 51.453125 129.78125 48.859375Q129.78125 47.171875 130.32812 45.921875Q130.89062 44.65625 132.03125 44.03125Q133.17188 43.390625 134.51562 43.390625Q136.20312 43.390625 137.26562 44.25Q138.34375 45.109375 138.65625 46.671875L136.9375 46.9375Q136.70312 45.890625 136.07812 45.375Q135.45312 44.84375 134.57812 44.84375Q133.25 44.84375 132.42188 45.796875Q131.59375 46.75 131.59375 48.796875Q131.59375 50.890625 132.39062 51.84375Q133.1875 52.78125 134.48438 52.78125Q135.51562 52.78125 136.20312 52.15625Q136.90625 51.515625 137.09375 50.203125ZM140.23438 58.0L140.04688 56.34375Q140.625 56.5 141.04688 56.5Q141.64062 56.5 141.98438 56.296875Q142.34375 56.109375 142.5625 55.765625Q142.73438 55.5 143.10938 54.453125Q143.15625 54.296875 143.26562 54.015625L139.32812 43.625L141.21875 43.625L143.375 49.640625Q143.79688 50.78125 144.125 52.03125Q144.4375 50.828125 144.84375 49.671875L147.0625 43.625L148.82812 43.625L144.875 54.171875Q144.25 55.890625 143.89062 56.53125Q143.42188 57.40625 142.8125 57.796875Q142.21875 58.203125 141.375 58.203125Q140.85938 58.203125 140.23438 58.0ZM159.67188 58.203125Q158.21875 56.375 157.21875 53.921875Q156.21875 51.453125 156.21875 48.8125Q156.21875 46.484375 156.96875 44.359375Q157.84375 41.890625 159.67188 39.4375L160.9375 39.4375Q159.75 41.46875 159.375 42.34375Q158.78125 43.6875 158.4375 45.15625Q158.01562 46.984375 158.01562 48.828125Q158.01562 53.515625 160.9375 58.203125L159.67188 58.203125ZM163.3125 54.0L163.3125 43.625L164.89062 43.625L164.89062 45.078125Q165.375 44.328125 166.1875 43.859375Q167.0 43.390625 168.03125 43.390625Q169.1875 43.390625 169.92188 43.875Q170.65625 44.34375 170.96875 45.203125Q172.20312 43.390625 174.17188 43.390625Q175.71875 43.390625 176.54688 44.25Q177.375 45.109375 177.375 46.875L177.375 54.0L175.625 54.0L175.625 47.46875Q175.625 46.40625 175.45312 45.953125Q175.28125 45.484375 174.82812 45.203125Q174.39062 44.921875 173.78125 44.921875Q172.6875 44.921875 171.95312 45.65625Q171.23438 46.375 171.23438 47.96875L171.23438 54.0L169.48438 54.0L169.48438 47.265625Q169.48438 46.09375 169.04688 45.515625Q168.625 44.921875 167.64062 44.921875Q166.90625 44.921875 166.26562 45.3125Q165.64062 45.703125 165.35938 46.453125Q165.07812 47.203125 165.07812 48.625L165.07812 54.0L163.3125 54.0ZM179.60938 50.90625L181.35938 50.625Q181.5 51.671875 182.17188 52.234375Q182.84375 52.78125 184.04688 52.78125Q185.25 52.78125 185.82812 52.296875Q186.42188 51.796875 186.42188 51.140625Q186.42188 50.546875 185.90625 50.203125Q185.54688 49.96875 184.10938 49.609375Q182.17188 49.109375 181.42188 48.765625Q180.6875 48.40625 180.29688 47.78125Q179.90625 47.140625 179.90625 46.375Q179.90625 45.6875 180.21875 45.09375Q180.54688 44.5 181.09375 44.109375Q181.5 43.8125 182.20312 43.609375Q182.92188 43.390625 183.73438 43.390625Q184.95312 43.390625 185.875 43.75Q186.79688 44.09375 187.23438 44.703125Q187.67188 45.296875 187.84375 46.296875L186.125 46.53125Q186.0 45.734375 185.4375 45.296875Q184.875 44.84375 183.85938 44.84375Q182.64062 44.84375 182.125 45.25Q181.60938 45.640625 181.60938 46.171875Q181.60938 46.515625 181.82812 46.796875Q182.03125 47.078125 182.5 47.265625Q182.76562 47.359375 184.04688 47.703125Q185.92188 48.203125 186.65625 48.53125Q187.39062 48.84375 187.8125 49.453125Q188.23438 50.046875 188.23438 50.953125Q188.23438 51.828125 187.71875 52.609375Q187.20312 53.390625 186.23438 53.8125Q185.26562 54.234375 184.04688 54.234375Q182.03125 54.234375 180.96875 53.390625Q179.90625 52.546875 179.60938 50.90625ZM191.46875 58.203125L190.21875 58.203125Q193.125 53.515625 193.125 48.828125Q193.125 46.984375 192.71875 45.1875Q192.375 43.71875 191.78125 42.375Q191.40625 41.484375 190.21875 39.4375L191.46875 39.4375Q193.3125 41.890625 194.1875 44.359375Q194.9375 46.484375 194.9375 48.8125Q194.9375 51.453125 193.92188 53.921875Q192.92188 56.375 191.46875 58.203125Z" fill-rule="nonzero"/></svg>