<?xml version="1.0" encoding="utf-8"?>
<svg id="master-artboard" viewBox="0 0 545 510" version="1.1" xmlns="http://www.w3.org/2000/svg" x="0px" y="0px" style="enable-background:new 0 0 336 235.2;" width="545px" height="510px" xmlns:xlink="http://www.w3.org/1999/xlink"><defs><path d="M150 225.16L150.5 375.16L300.5 450L450 374.84L449.49 224.84L299.49 150L150 225.16Z" id="i9KzYNDN4"/><path d="M150 225.16L150.5 375.16L300.58 450L450.16 374.84L449.65 224.84L299.57 150L150 225.16Z" id="a7yyUymbHx"/><path d="M329.94 314.52L390 194.59L509.94 254.66L449.87 374.59L329.94 314.52Z" id="b4wSmgExze"/><path d="M511.44 175.38L511.44 393.31L450.16 393.31L450.16 175.38L511.44 175.38Z" id="cX42jUxt"/><path d="M87.72 256.16L207.15 195.11L268.2 314.55L148.76 375.59L87.72 256.16Z" id="e2O5vbDn2h"/><path d="M200.08 250L200.08 350L300.08 400L400.08 350L400.08 250L300.08 200L200.08 250Z" id="c3kNhiZyT4"/><path d="M200.08 250L200.08 350L300.08 400L400.08 350L400.08 250L300.08 200L200.08 250Z" id="aieqbTiEi"/><path d="M400.08 146L400.08 346L200.08 346L200.08 146L400.08 146Z" id="a1r8Rr9MlH"/><path d="M300.08 220C280.76 220 265.08 204.32 265.08 185C265.08 165.69 280.76 150 300.08 150C319.4 150 335.08 165.69 335.08 185C335.08 204.32 319.4 220 300.08 220Z" id="b8sFZJkG9"/><path d="M150 175.29L150 393.22L88.72 393.22L88.72 175.29L150 175.29Z" id="h4dPKYYJl6"/></defs><rect id="ee-background" x="0" y="0" width="545" height="510" style="fill: rgb(255, 255, 255); fill-opacity: 1; pointer-events: none;"/><g transform="matrix(1.5312499999999998, 0, 0, 1.5312499999999998, -188.8647308349609, -204.92854309082028)"><g><g><g><use opacity="1" fill="#216ca8" fill-opacity="1" xlink:href="#i9KzYNDN4"/><g><use opacity="1" fill-opacity="0" stroke="#000000" stroke-width="1" stroke-opacity="0" xlink:href="#i9KzYNDN4"/></g></g><g><use opacity="1" fill="#000000" fill-opacity="0" xlink:href="#a7yyUymbHx"/><g><use opacity="1" fill-opacity="0" stroke="#005caf" stroke-width="0" stroke-opacity="1" xlink:href="#a7yyUymbHx"/></g></g><g><use opacity="1" fill="#5293c6" fill-opacity="1" xlink:href="#b4wSmgExze"/><g><use opacity="1" fill-opacity="0" stroke="#000000" stroke-width="0" stroke-opacity="0" xlink:href="#b4wSmgExze"/></g></g><g><use opacity="1" fill="#ffffff" fill-opacity="1" xlink:href="#cX42jUxt"/><g><use opacity="1" fill-opacity="0" stroke="#000000" stroke-width="1" stroke-opacity="0" xlink:href="#cX42jUxt"/></g></g><g><use opacity="1" fill="#3d7cb0" fill-opacity="1" xlink:href="#e2O5vbDn2h"/><g><use opacity="1" fill-opacity="0" stroke="#000000" stroke-width="0" stroke-opacity="0" xlink:href="#e2O5vbDn2h"/></g></g><g><use opacity="1" fill="#ffffff" fill-opacity="1" xlink:href="#c3kNhiZyT4"/><g><use opacity="1" fill-opacity="0" stroke="#000000" stroke-width="1" stroke-opacity="0" xlink:href="#c3kNhiZyT4"/></g></g><g><use opacity="1" fill="#000000" fill-opacity="0" xlink:href="#aieqbTiEi"/><g><use opacity="1" fill-opacity="0" stroke="#f488f8" stroke-width="0" stroke-opacity="1" xlink:href="#aieqbTiEi"/></g></g><g><use opacity="1" fill="#ffffff" fill-opacity="1" xlink:href="#a1r8Rr9MlH"/><g><use opacity="1" fill-opacity="0" stroke="#000000" stroke-width="1" stroke-opacity="0" xlink:href="#a1r8Rr9MlH"/></g></g><g><use opacity="1" fill="#79b2d5" fill-opacity="1" xlink:href="#b8sFZJkG9"/><g><use opacity="1" fill-opacity="0" stroke="#000000" stroke-width="0" stroke-opacity="0" xlink:href="#b8sFZJkG9"/></g></g><g><use opacity="1" fill="#ffffff" fill-opacity="1" xlink:href="#h4dPKYYJl6"/><g><use opacity="1" fill-opacity="0" stroke="#000000" stroke-width="1" stroke-opacity="0" xlink:href="#h4dPKYYJl6"/></g></g></g></g></g></svg>