<?xml version="1.0" encoding="utf-8"?>
<svg id="master-artboard" viewBox="0 0 1180 370" version="1.1" xmlns="http://www.w3.org/2000/svg" x="0px" y="0px" style="enable-background:new 0 0 1400 980;" width="1180px" height="370px" xmlns:xlink="http://www.w3.org/1999/xlink"><defs><path d="M150 225.16L150.5 375.16L300.58 450L450.16 374.84L449.65 224.84L299.57 150L150 225.16Z" id="a1Pwh5Qti2"/><path d="M150 225.16L150.5 375.16L300.58 450L450.16 374.84L449.65 224.84L299.57 150L150 225.16Z" id="b2k1ph4B2N"/><path d="M328.94 314.53L389.39 193.82L510.1 254.28L449.64 374.98L328.94 314.53Z" id="d3NZYSdP91"/><path d="M542.8 157.05L542.8 374.98L450.16 374.98L450.16 157.05L542.8 157.05Z" id="apZiJYzBh"/><path d="M200.08 250L200.08 350L300.08 400L400.08 350L400.08 250L300.08 200L200.08 250Z" id="g2qAYQfxAr"/><path d="M200.08 250L200.08 350L300.08 400L400.08 350L400.08 250L300.08 200L200.08 250Z" id="chba482Dt"/><path d="M400.08 100L400.08 300L200.08 300L200.08 100L400.08 100Z" id="b1MVq6AaoV"/><path d="M300.08 220C280.76 220 265.08 204.32 265.08 185C265.08 165.69 280.76 150 300.08 150C319.4 150 335.08 165.69 335.08 185C335.08 204.32 319.4 220 300.08 220Z" id="bTucmDmwY"/><path d="M150.5 375.16L300.5 450L450 374.84L449.49 224.84L299.49 150L150 225.16L150.5 375.16Z" id="a2aZ9Djn8W"/><path d="M150.5 375.16L300.5 450L450 374.84L449.49 224.84L299.49 150L150 225.16L150.5 375.16Z" id="h2Xa3zsuVc"/><path d="M150.5 375.16L300.58 450L450.16 374.84L449.65 224.84L299.57 150L150 225.16L150.5 375.16Z" id="b2QIEdmLhP"/><path d="M150.5 375.16L300.58 450L450.16 374.84L449.65 224.84L299.57 150L150 225.16L150.5 375.16Z" id="arXtTa1hR"/><path d="M390 194.59L509.94 254.66L449.87 374.59L329.94 314.52L390 194.59Z" id="g1JMFJFSz"/><path d="M390 194.59L509.94 254.66L449.87 374.59L329.94 314.52L390 194.59Z" id="hjh0t2Z35"/><path d="M511.44 393.31L450.16 393.31L450.16 175.38L511.44 175.38L511.44 393.31Z" id="aJv1Ix2XK"/><path d="M511.44 393.31L450.16 393.31L450.16 175.38L511.44 175.38L511.44 393.31Z" id="a4NFiyv6Fk"/><path d="M207.15 195.11L268.2 314.55L148.76 375.59L87.72 256.16L207.15 195.11Z" id="c6uQ8Odznt"/><path d="M207.15 195.11L268.2 314.55L148.76 375.59L87.72 256.16L207.15 195.11Z" id="aawqWXUMV"/><path d="M200.08 350L300.08 400L400.08 350L400.08 250L300.08 200L200.08 250L200.08 350Z" id="a2JoeJc31"/><path d="M200.08 350L300.08 400L400.08 350L400.08 250L300.08 200L200.08 250L200.08 350Z" id="a6ORtUjoeo"/><path d="M200.08 350L300.08 400L400.08 350L400.08 250L300.08 200L200.08 250L200.08 350Z" id="bflyGYx1e"/><path d="M200.08 350L300.08 400L400.08 350L400.08 250L300.08 200L200.08 250L200.08 350Z" id="ephSGwxnd"/><path d="M400.08 346L200.08 346L200.08 146L400.08 146L400.08 346Z" id="cl22iDEjE"/><path d="M400.08 346L200.08 346L200.08 146L400.08 146L400.08 346Z" id="b5PapQOwV"/><path d="M265.08 185C265.08 165.69 280.76 150 300.08 150C319.4 150 335.08 165.69 335.08 185C335.08 204.32 319.4 220 300.08 220C280.76 220 265.08 204.32 265.08 185Z" id="dwmEbGRhj"/><path d="M265.08 185C265.08 165.69 280.76 150 300.08 150C319.4 150 335.08 165.69 335.08 185C335.08 204.32 319.4 220 300.08 220C280.76 220 265.08 204.32 265.08 185Z" id="b3qvEFTmeu"/><path d="M150 393.22L88.72 393.22L88.72 175.29L150 175.29L150 393.22Z" id="csyNwjWTO"/><path d="M150 393.22L88.72 393.22L88.72 175.29L150 175.29L150 393.22Z" id="h5sVioCvc3"/><path d="M 655.8499755859375 686.1966552734375 L 655.8499755859375 609.6866455078125 C 655.8499755859375 600.046630859375 653.6566772460938 592.8533325195312 649.27001953125 588.106689453125 C 644.88330078125 583.3599853515625 638.0133056640625 580.9866333007812 628.6599731445312 580.9866333007812 C 616.2866821289062 580.9866333007812 607.2233276367188 584.3299560546875 601.469970703125 591.0166625976562 C 595.7166748046875 597.7099609375 592.8399658203125 608.7532958984375 592.8399658203125 624.1466674804688 L 592.8399658203125 686.1966552734375 L 574.9199829101562 686.1966552734375 L 574.9199829101562 567.9266357421875 L 589.489990234375 567.9266357421875 L 592.4000244140625 584.1166381835938 L 593.27001953125 584.1166381835938 C 596.9366455078125 578.2899780273438 602.0800170898438 573.7733154296875 608.7000122070312 570.566650390625 C 615.3200073242188 567.3666381835938 622.693359375 565.7666625976562 630.8200073242188 565.7666625976562 C 645.066650390625 565.7666625976562 655.7866821289062 569.2033081054688 662.97998046875 576.07666015625 C 670.17333984375 582.9432983398438 673.77001953125 593.9299926757812 673.77001953125 609.03662109375 L 673.77001953125 686.1966552734375 L 655.8499755859375 686.1966552734375 ZM 791.060302734375 670.336669921875 L 790.09033203125 670.336669921875 C 781.8169555664062 682.3499755859375 769.4436645507812 688.3566284179688 752.9703369140625 688.3566284179688 C 737.503662109375 688.3566284179688 725.4703369140625 683.0700073242188 716.8703002929688 672.4966430664062 C 708.2769775390625 661.9166259765625 703.9802856445312 646.8800048828125 703.9802856445312 627.3866577148438 C 703.9802856445312 607.893310546875 708.2969970703125 592.75 716.9302978515625 581.9566650390625 C 725.5636596679688 571.163330078125 737.5769653320312 565.7666625976562 752.9703369140625 565.7666625976562 C 769.0103149414062 565.7666625976562 781.3136596679688 571.5933227539062 789.8803100585938 583.2466430664062 L 791.2803344726562 583.2466430664062 L 790.5203247070312 574.7266845703125 L 790.09033203125 566.4166259765625 L 790.09033203125 518.28662109375 L 808.0103149414062 518.28662109375 L 808.0103149414062 686.1966552734375 L 793.4403076171875 686.1966552734375 L 791.060302734375 670.336669921875 M 755.2402954101562 673.3566284179688 C 767.4669799804688 673.3566284179688 776.3336181640625 670.0299682617188 781.84033203125 663.3766479492188 C 787.34033203125 656.7233276367188 790.09033203125 645.9866333007812 790.09033203125 631.1666259765625 L 790.09033203125 627.3866577148438 C 790.09033203125 610.6266479492188 787.3036499023438 598.6666259765625 781.7303466796875 591.5066528320312 C 776.156982421875 584.3466796875 767.253662109375 580.7666625976562 755.0203247070312 580.7666625976562 C 744.5203247070312 580.7666625976562 736.4802856445312 584.8499755859375 730.9003295898438 593.0166625976562 C 725.3269653320312 601.183349609375 722.540283203125 612.7099609375 722.540283203125 627.5966796875 C 722.540283203125 642.7099609375 725.310302734375 654.1133422851562 730.850341796875 661.806640625 C 736.3903198242188 669.5066528320312 744.5203247070312 673.3566284179688 755.2402954101562 673.3566284179688 ZM 895.9448852539062 688.3566284179688 C 878.46484375 688.3566284179688 864.6715087890625 683.0333251953125 854.5648803710938 672.3866577148438 C 844.4581909179688 661.739990234375 839.4048461914062 646.9566650390625 839.4048461914062 628.0366821289062 C 839.4048461914062 608.969970703125 844.0982055664062 593.82666015625 853.48486328125 582.606689453125 C 862.8715209960938 571.3800048828125 875.4782104492188 565.7666625976562 891.3048706054688 565.7666625976562 C 906.1248779296875 565.7666625976562 917.8515625 570.6400146484375 926.48486328125 580.3866577148438 C 935.1182250976562 590.1400146484375 939.4348754882812 603 939.4348754882812 618.9666748046875 L 939.4348754882812 630.296630859375 L 857.96484375 630.296630859375 C 858.3248901367188 644.183349609375 861.83154296875 654.7233276367188 868.48486328125 661.9166259765625 C 875.13818359375 669.1099853515625 884.5081787109375 672.7066650390625 896.5948486328125 672.7066650390625 C 909.3281860351562 672.7066650390625 921.918212890625 670.046630859375 934.3648681640625 664.7266845703125 L 934.3648681640625 680.6966552734375 C 928.0315551757812 683.4299926757812 922.0415649414062 685.3900146484375 916.3948974609375 686.57666015625 C 910.7482299804688 687.7633056640625 903.9315185546875 688.3566284179688 895.9448852539062 688.3566284179688 M 891.0948486328125 580.7666625976562 C 881.5948486328125 580.7666625976562 874.0215454101562 583.8599853515625 868.3748779296875 590.046630859375 C 862.7282104492188 596.2333374023438 859.4015502929688 604.7933349609375 858.3948974609375 615.7266845703125 L 920.224853515625 615.7266845703125 C 920.224853515625 604.433349609375 917.7081909179688 595.7833251953125 912.6748657226562 589.7766723632812 C 907.6415405273438 583.77001953125 900.4481811523438 580.7666625976562 891.0948486328125 580.7666625976562 ZM 1023.93115234375 565.7666625976562 C 1029.1778564453125 565.7666625976562 1033.8878173828125 566.2000122070312 1038.0611572265625 567.066650390625 L 1035.5811767578125 583.6866455078125 C 1030.687744140625 582.606689453125 1026.37109375 582.066650390625 1022.6311645507812 582.066650390625 C 1013.064453125 582.066650390625 1004.8811645507812 585.9500122070312 998.0811157226562 593.7166748046875 C 991.2877807617188 601.489990234375 987.89111328125 611.1666259765625 987.89111328125 622.7466430664062 L 987.89111328125 686.1966552734375 L 969.9711303710938 686.1966552734375 L 969.9711303710938 567.9266357421875 L 984.7611083984375 567.9266357421875 L 986.8111572265625 589.836669921875 L 987.671142578125 589.836669921875 C 992.0578002929688 582.1366577148438 997.344482421875 576.2000122070312 1003.5311279296875 572.0266723632812 C 1009.7178344726562 567.8533325195312 1016.517822265625 565.7666625976562 1023.93115234375 565.7666625976562 ZM 1210.93212890625 686.1966552734375 L 1210.93212890625 609.2566528320312 C 1210.93212890625 599.8299560546875 1208.9188232421875 592.7633056640625 1204.89208984375 588.056640625 C 1200.865478515625 583.3433227539062 1194.60546875 580.9866333007812 1186.1121826171875 580.9866333007812 C 1174.9654541015625 580.9866333007812 1166.728759765625 584.1866455078125 1161.402099609375 590.586669921875 C 1156.0821533203125 596.9933471679688 1153.422119140625 606.8499755859375 1153.422119140625 620.1566772460938 L 1153.422119140625 686.1966552734375 L 1135.502197265625 686.1966552734375 L 1135.502197265625 609.2566528320312 C 1135.502197265625 599.8299560546875 1133.48876953125 592.7633056640625 1129.462158203125 588.056640625 C 1125.4354248046875 583.3433227539062 1119.14208984375 580.9866333007812 1110.5821533203125 580.9866333007812 C 1099.35546875 580.9866333007812 1091.135498046875 584.3499755859375 1085.922119140625 591.07666015625 C 1080.7088623046875 597.8033447265625 1078.1021728515625 608.82666015625 1078.1021728515625 624.1466674804688 L 1078.1021728515625 686.1966552734375 L 1060.18212890625 686.1966552734375 L 1060.18212890625 567.9266357421875 L 1074.752197265625 567.9266357421875 L 1077.662109375 584.1166381835938 L 1078.5321044921875 584.1166381835938 C 1081.912109375 578.356689453125 1086.6788330078125 573.8599853515625 1092.8321533203125 570.6266479492188 C 1098.978759765625 567.3866577148438 1105.865478515625 565.7666625976562 1113.4921875 565.7666625976562 C 1131.978759765625 565.7666625976562 1144.0654296875 572.4566650390625 1149.752197265625 585.836669921875 L 1150.6121826171875 585.836669921875 C 1154.1387939453125 579.6499633789062 1159.2454833984375 574.760009765625 1165.93212890625 571.1666259765625 C 1172.62548828125 567.566650390625 1180.252197265625 565.7666625976562 1188.8121337890625 565.7666625976562 C 1202.192138671875 565.7666625976562 1212.208740234375 569.2033081054688 1218.8621826171875 576.07666015625 C 1225.5220947265625 582.9432983398438 1228.8521728515625 593.9299926757812 1228.8521728515625 609.03662109375 L 1228.8521728515625 686.1966552734375 L 1210.93212890625 686.1966552734375 ZM 1367.8367919921875 626.9566650390625 C 1367.8367919921875 646.2366333007812 1362.980224609375 661.2899780273438 1353.266845703125 672.1166381835938 C 1343.553466796875 682.9432983398438 1330.1368408203125 688.3566284179688 1313.016845703125 688.3566284179688 C 1302.4368896484375 688.3566284179688 1293.046875 685.8733520507812 1284.8468017578125 680.9066772460938 C 1276.6468505859375 675.9466552734375 1270.31689453125 668.82666015625 1265.8568115234375 659.546630859375 C 1261.3968505859375 650.2666625976562 1259.1668701171875 639.4033203125 1259.1668701171875 626.9566650390625 C 1259.1668701171875 607.6766357421875 1263.98681640625 592.6566772460938 1273.6268310546875 581.8966674804688 C 1283.266845703125 571.143310546875 1296.6468505859375 565.7666625976562 1313.766845703125 565.7666625976562 C 1330.3134765625 565.7666625976562 1343.460205078125 571.27001953125 1353.206787109375 582.2766723632812 C 1362.960205078125 593.2833251953125 1367.8367919921875 608.1766357421875 1367.8367919921875 626.9566650390625 M 1277.726806640625 626.9566650390625 C 1277.726806640625 642.0632934570312 1280.746826171875 653.5733032226562 1286.786865234375 661.4866333007812 C 1292.83349609375 669.3999633789062 1301.72021484375 673.3566284179688 1313.44677734375 673.3566284179688 C 1325.1734619140625 673.3566284179688 1334.0767822265625 669.4166259765625 1340.1568603515625 661.5366821289062 C 1346.230224609375 653.663330078125 1349.266845703125 642.1366577148438 1349.266845703125 626.9566650390625 C 1349.266845703125 611.9166259765625 1346.230224609375 600.4966430664062 1340.1568603515625 592.6966552734375 C 1334.0767822265625 584.8900146484375 1325.1002197265625 580.9866333007812 1313.226806640625 580.9866333007812 C 1301.5001220703125 580.9866333007812 1292.653564453125 584.8333129882812 1286.6868896484375 592.5266723632812 C 1280.7135009765625 600.2266845703125 1277.726806640625 611.7033081054688 1277.726806640625 626.9566650390625 ZM 1501.3189697265625 626.9566650390625 C 1501.3189697265625 646.2366333007812 1496.46240234375 661.2899780273438 1486.7490234375 672.1166381835938 C 1477.03564453125 682.9432983398438 1463.6190185546875 688.3566284179688 1446.4990234375 688.3566284179688 C 1435.9190673828125 688.3566284179688 1426.529052734375 685.8733520507812 1418.3289794921875 680.9066772460938 C 1410.1290283203125 675.9466552734375 1403.799072265625 668.82666015625 1399.3389892578125 659.546630859375 C 1394.8790283203125 650.2666625976562 1392.6490478515625 639.4033203125 1392.6490478515625 626.9566650390625 C 1392.6490478515625 607.6766357421875 1397.468994140625 592.6566772460938 1407.1090087890625 581.8966674804688 C 1416.7490234375 571.143310546875 1430.1290283203125 565.7666625976562 1447.2490234375 565.7666625976562 C 1463.795654296875 565.7666625976562 1476.9423828125 571.27001953125 1486.68896484375 582.2766723632812 C 1496.4423828125 593.2833251953125 1501.3189697265625 608.1766357421875 1501.3189697265625 626.9566650390625 M 1411.208984375 626.9566650390625 C 1411.208984375 642.0632934570312 1414.22900390625 653.5733032226562 1420.26904296875 661.4866333007812 C 1426.315673828125 669.3999633789062 1435.202392578125 673.3566284179688 1446.928955078125 673.3566284179688 C 1458.6556396484375 673.3566284179688 1467.5589599609375 669.4166259765625 1473.6390380859375 661.5366821289062 C 1479.71240234375 653.663330078125 1482.7490234375 642.1366577148438 1482.7490234375 626.9566650390625 C 1482.7490234375 611.9166259765625 1479.71240234375 600.4966430664062 1473.6390380859375 592.6966552734375 C 1467.5589599609375 584.8900146484375 1458.5823974609375 580.9866333007812 1446.708984375 580.9866333007812 C 1434.9822998046875 580.9866333007812 1426.1357421875 584.8333129882812 1420.1690673828125 592.5266723632812 C 1414.1956787109375 600.2266845703125 1411.208984375 611.7033081054688 1411.208984375 626.9566650390625 ZM 1613.6412353515625 686.1966552734375 L 1613.6412353515625 609.6866455078125 C 1613.6412353515625 600.046630859375 1611.4478759765625 592.8533325195312 1607.0611572265625 588.106689453125 C 1602.674560546875 583.3599853515625 1595.8045654296875 580.9866333007812 1586.451171875 580.9866333007812 C 1574.077880859375 580.9866333007812 1565.0145263671875 584.3299560546875 1559.26123046875 591.0166625976562 C 1553.5078125 597.7099609375 1550.6312255859375 608.7532958984375 1550.6312255859375 624.1466674804688 L 1550.6312255859375 686.1966552734375 L 1532.711181640625 686.1966552734375 L 1532.711181640625 567.9266357421875 L 1547.28125 567.9266357421875 L 1550.191162109375 584.1166381835938 L 1551.0611572265625 584.1166381835938 C 1554.7279052734375 578.2899780273438 1559.8712158203125 573.7733154296875 1566.4912109375 570.566650390625 C 1573.1112060546875 567.3666381835938 1580.4844970703125 565.7666625976562 1588.6112060546875 565.7666625976562 C 1602.85791015625 565.7666625976562 1613.577880859375 569.2033081054688 1620.771240234375 576.07666015625 C 1627.9644775390625 582.9432983398438 1631.5611572265625 593.9299926757812 1631.5611572265625 609.03662109375 L 1631.5611572265625 686.1966552734375 L 1613.6412353515625 686.1966552734375 Z" transform="matrix(1, 0, 0, 1, -75.13243103027344, -269.5946044921875)" style="line-height: 100%; alignment-baseline: before-edge; white-space: pre;"/><linearGradient id="gradient-0" gradientUnits="userSpaceOnUse" x1="928.8284912109375" y1="180.3897705078125" x2="928.8284912109375" y2="433.9210205078125">
                <stop offset="0" style="stop-color: #3f7cae"/>
                <stop offset="1" style="stop-color: #244763"/>
              </linearGradient><style id="ee-google-fonts">@import url(https://fonts.googleapis.com/css?family=Open+Sans:300,600,700,800,300italic,400,400italic,600italic,700italic,800italic);</style></defs><rect id="ee-background" x="0" y="0" width="1180" height="370" style="fill: rgb(255, 255, 255); fill-opacity: 1; pointer-events: none;"/><g transform="matrix(0.8536585569381714, 0, 0, 0.8536585569381714, -73.89391795345551, -84.02452087402344)"><g><g><g><use opacity="1" fill="#3c6ddd" fill-opacity="1" xlink:href="#a1Pwh5Qti2"/><g><use opacity="1" fill-opacity="0" stroke="#000000" stroke-width="1" stroke-opacity="0" xlink:href="#a1Pwh5Qti2"/></g></g><g><use opacity="1" fill="#000000" fill-opacity="0" xlink:href="#b2k1ph4B2N"/><g><use opacity="1" fill-opacity="0" stroke="#663970" stroke-width="0" stroke-opacity="1" xlink:href="#b2k1ph4B2N"/></g></g><g><use opacity="1" fill="#5894f8" fill-opacity="1" xlink:href="#d3NZYSdP91"/><g><use opacity="1" fill-opacity="0" stroke="#000000" stroke-width="1" stroke-opacity="0" xlink:href="#d3NZYSdP91"/></g></g><g><use opacity="1" fill="#ffffff" fill-opacity="1" xlink:href="#apZiJYzBh"/><g><use opacity="1" fill-opacity="0" stroke="#000000" stroke-width="1" stroke-opacity="0" xlink:href="#apZiJYzBh"/></g></g><g><use opacity="1" fill="#ffffff" fill-opacity="1" xlink:href="#g2qAYQfxAr"/><g><use opacity="1" fill-opacity="0" stroke="#000000" stroke-width="1" stroke-opacity="0" xlink:href="#g2qAYQfxAr"/></g></g><g><use opacity="1" fill="#000000" fill-opacity="0" xlink:href="#chba482Dt"/><g><use opacity="1" fill-opacity="0" stroke="#f488f8" stroke-width="0" stroke-opacity="1" xlink:href="#chba482Dt"/></g></g><g><use opacity="1" fill="#ffffff" fill-opacity="1" xlink:href="#b1MVq6AaoV"/><g><use opacity="1" fill-opacity="0" stroke="#000000" stroke-width="1" stroke-opacity="0" xlink:href="#b1MVq6AaoV"/></g></g><g><use opacity="1" fill="#8ccef0" fill-opacity="1" xlink:href="#bTucmDmwY"/><g><use opacity="1" fill-opacity="0" stroke="#000000" stroke-width="1" stroke-opacity="0" xlink:href="#bTucmDmwY"/></g></g><g><use opacity="1" fill="#216ca8" fill-opacity="1" xlink:href="#a2aZ9Djn8W"/><g><use opacity="1" fill-opacity="0" stroke="#000000" stroke-width="1" stroke-opacity="0" xlink:href="#a2aZ9Djn8W"/></g></g><g><use opacity="1" fill="#000000" fill-opacity="0" xlink:href="#h2Xa3zsuVc"/><g><use opacity="1" fill-opacity="0" stroke="#000000" stroke-width="1" stroke-opacity="0" xlink:href="#h2Xa3zsuVc"/></g></g><g><use opacity="1" fill="#000000" fill-opacity="0" xlink:href="#b2QIEdmLhP"/><g><use opacity="1" fill-opacity="0" stroke="#000000" stroke-width="1" stroke-opacity="0" xlink:href="#b2QIEdmLhP"/></g></g><g><use opacity="1" fill="#000000" fill-opacity="0" xlink:href="#arXtTa1hR"/><g><use opacity="1" fill-opacity="0" stroke="#005caf" stroke-width="0" stroke-opacity="1" xlink:href="#arXtTa1hR"/></g></g><g><use opacity="1" fill="#5293c6" fill-opacity="1" xlink:href="#g1JMFJFSz"/><g><use opacity="1" fill-opacity="0" stroke="#000000" stroke-width="1" stroke-opacity="0" xlink:href="#g1JMFJFSz"/></g></g><g><use opacity="1" fill="#000000" fill-opacity="0" xlink:href="#hjh0t2Z35"/><g><use opacity="1" fill-opacity="0" stroke="#000000" stroke-width="0" stroke-opacity="0" xlink:href="#hjh0t2Z35"/></g></g><g><use opacity="1" fill="#ffffff" fill-opacity="1" xlink:href="#aJv1Ix2XK"/><g><use opacity="1" fill-opacity="0" stroke="#000000" stroke-width="1" stroke-opacity="0" xlink:href="#aJv1Ix2XK"/></g></g><g><use opacity="1" fill="#000000" fill-opacity="0" xlink:href="#a4NFiyv6Fk"/><g><use opacity="1" fill-opacity="0" stroke="#000000" stroke-width="1" stroke-opacity="0" xlink:href="#a4NFiyv6Fk"/></g></g><g><use opacity="1" fill="#3d7cb0" fill-opacity="1" xlink:href="#c6uQ8Odznt"/><g><use opacity="1" fill-opacity="0" stroke="#000000" stroke-width="1" stroke-opacity="0" xlink:href="#c6uQ8Odznt"/></g></g><g><use opacity="1" fill="#000000" fill-opacity="0" xlink:href="#aawqWXUMV"/><g><use opacity="1" fill-opacity="0" stroke="#000000" stroke-width="0" stroke-opacity="0" xlink:href="#aawqWXUMV"/></g></g><g><use opacity="1" fill="#ffffff" fill-opacity="1" xlink:href="#a2JoeJc31"/><g><use opacity="1" fill-opacity="0" stroke="#000000" stroke-width="1" stroke-opacity="0" xlink:href="#a2JoeJc31"/></g></g><g><use opacity="1" fill="#000000" fill-opacity="0" xlink:href="#a6ORtUjoeo"/><g><use opacity="1" fill-opacity="0" stroke="#000000" stroke-width="1" stroke-opacity="0" xlink:href="#a6ORtUjoeo"/></g></g><g><use opacity="1" fill="#000000" fill-opacity="0" xlink:href="#bflyGYx1e"/><g><use opacity="1" fill-opacity="0" stroke="#000000" stroke-width="1" stroke-opacity="0" xlink:href="#bflyGYx1e"/></g></g><g><use opacity="1" fill="#000000" fill-opacity="0" xlink:href="#ephSGwxnd"/><g><use opacity="1" fill-opacity="0" stroke="#f488f8" stroke-width="0" stroke-opacity="1" xlink:href="#ephSGwxnd"/></g></g><g><use opacity="1" fill="#ffffff" fill-opacity="1" xlink:href="#cl22iDEjE"/><g><use opacity="1" fill-opacity="0" stroke="#000000" stroke-width="1" stroke-opacity="0" xlink:href="#cl22iDEjE"/></g></g><g><use opacity="1" fill="#000000" fill-opacity="0" xlink:href="#b5PapQOwV"/><g><use opacity="1" fill-opacity="0" stroke="#000000" stroke-width="1" stroke-opacity="0" xlink:href="#b5PapQOwV"/></g></g><g><use opacity="1" fill="#79b2d5" fill-opacity="1" xlink:href="#dwmEbGRhj"/><g><use opacity="1" fill-opacity="0" stroke="#000000" stroke-width="1" stroke-opacity="0" xlink:href="#dwmEbGRhj"/></g></g><g><use opacity="1" fill="#000000" fill-opacity="0" xlink:href="#b3qvEFTmeu"/><g><use opacity="1" fill-opacity="0" stroke="#000000" stroke-width="0" stroke-opacity="0" xlink:href="#b3qvEFTmeu"/></g></g><g><use opacity="1" fill="#ffffff" fill-opacity="1" xlink:href="#csyNwjWTO"/><g><use opacity="1" fill-opacity="0" stroke="#000000" stroke-width="1" stroke-opacity="0" xlink:href="#csyNwjWTO"/></g></g><g><use opacity="1" fill="#000000" fill-opacity="0" xlink:href="#h5sVioCvc3"/><g><use opacity="1" fill-opacity="0" stroke="#000000" stroke-width="1" stroke-opacity="0" xlink:href="#h5sVioCvc3"/></g></g><path d="M 554.7080078125 371.6698913574219 L 554.7080078125 363.3598937988281 C 554.7080078125 362.313232421875 554.4713745117188 361.5332336425781 553.998046875 361.0198974609375 C 553.5180053710938 360.4998779296875 552.7713623046875 360.2398986816406 551.758056640625 360.2398986816406 C 550.411376953125 360.2398986816406 549.4280395507812 360.60321044921875 548.8080444335938 361.32989501953125 C 548.1813354492188 362.0565490722656 547.8680419921875 363.2565612792969 547.8680419921875 364.9299011230469 L 547.8680419921875 371.6698913574219 L 545.9180297851562 371.6698913574219 L 545.9180297851562 358.82989501953125 L 547.498046875 358.82989501953125 L 547.8180541992188 360.57989501953125 L 547.9080200195312 360.57989501953125 C 548.3080444335938 359.9465637207031 548.8680419921875 359.45654296875 549.5880126953125 359.1098937988281 C 550.3080444335938 358.7632141113281 551.1080322265625 358.58990478515625 551.988037109375 358.58990478515625 C 553.53466796875 358.58990478515625 554.7013549804688 358.9632263183594 555.488037109375 359.70989990234375 C 556.2680053710938 360.45654296875 556.6580200195312 361.64990234375 556.6580200195312 363.2898864746094 L 556.6580200195312 371.6698913574219 L 554.7080078125 371.6698913574219 ZM 569.3880004882812 369.94989013671875 L 569.2880249023438 369.94989013671875 C 568.3880004882812 371.2498779296875 567.044677734375 371.89990234375 565.2579956054688 371.89990234375 C 563.5780029296875 371.89990234375 562.2713623046875 371.3265686035156 561.3380126953125 370.1799011230469 C 560.4046630859375 369.0332336425781 559.93798828125 367.39990234375 559.93798828125 365.2798767089844 C 559.93798828125 363.16656494140625 560.4046630859375 361.5232238769531 561.3380126953125 360.3498840332031 C 562.2780151367188 359.1765441894531 563.5846557617188 358.58990478515625 565.2579956054688 358.58990478515625 C 566.9979858398438 358.58990478515625 568.3346557617188 359.2232360839844 569.2680053710938 360.4898986816406 L 569.4180297851562 360.4898986816406 L 569.3380126953125 359.5599060058594 L 569.2880249023438 358.6598815917969 L 569.2880249023438 353.43988037109375 L 571.22802734375 353.43988037109375 L 571.22802734375 371.6698913574219 L 569.6480102539062 371.6698913574219 L 569.3880004882812 369.94989013671875 M 565.4979858398438 370.2798767089844 C 566.8313598632812 370.2798767089844 567.794677734375 369.91656494140625 568.3880004882812 369.18988037109375 C 568.988037109375 368.4698791503906 569.2880249023438 367.30322265625 569.2880249023438 365.68988037109375 L 569.2880249023438 365.2798767089844 C 569.2880249023438 363.45989990234375 568.9846801757812 362.1632385253906 568.3779907226562 361.389892578125 C 567.7713623046875 360.6098937988281 566.8046875 360.2198791503906 565.47802734375 360.2198791503906 C 564.3380126953125 360.2198791503906 563.4646606445312 360.6632385253906 562.8580322265625 361.5498962402344 C 562.2513427734375 362.4365539550781 561.947998046875 363.68988037109375 561.947998046875 365.3099060058594 C 561.947998046875 366.94989013671875 562.2513427734375 368.1865539550781 562.8580322265625 369.0198974609375 C 563.4580078125 369.8598937988281 564.3380126953125 370.2798767089844 565.4979858398438 370.2798767089844 ZM 580.7846069335938 371.89990234375 C 578.8846435546875 371.89990234375 577.3846435546875 371.3232116699219 576.2846069335938 370.1698913574219 C 575.1912841796875 369.0165710449219 574.6445922851562 367.4098815917969 574.6445922851562 365.3498840332031 C 574.6445922851562 363.2832336425781 575.1546020507812 361.639892578125 576.1746215820312 360.4198913574219 C 577.1946411132812 359.19989013671875 578.561279296875 358.58990478515625 580.2745971679688 358.58990478515625 C 581.887939453125 358.58990478515625 583.1612548828125 359.1199035644531 584.0946044921875 360.1799011230469 C 585.0346069335938 361.2398986816406 585.504638671875 362.6365661621094 585.504638671875 364.3699035644531 L 585.504638671875 365.5998840332031 L 576.6546020507812 365.5998840332031 C 576.6946411132812 367.1065673828125 577.0779418945312 368.2498779296875 577.8046264648438 369.0298767089844 C 578.5245971679688 369.8165588378906 579.541259765625 370.20989990234375 580.8546142578125 370.20989990234375 C 582.234619140625 370.20989990234375 583.6012573242188 369.9198913574219 584.95458984375 369.33990478515625 L 584.95458984375 371.06988525390625 C 584.2679443359375 371.3699035644531 583.617919921875 371.5832214355469 583.004638671875 371.70989990234375 C 582.3912963867188 371.8365478515625 581.6513061523438 371.89990234375 580.7846069335938 371.89990234375 M 580.254638671875 360.2198791503906 C 579.2213134765625 360.2198791503906 578.39794921875 360.5565490722656 577.7846069335938 361.2298889160156 C 577.1712646484375 361.9032287597656 576.811279296875 362.8332214355469 576.70458984375 364.0198974609375 L 583.4246215820312 364.0198974609375 C 583.4246215820312 362.793212890625 583.14794921875 361.85321044921875 582.5946044921875 361.19989013671875 C 582.0479736328125 360.54656982421875 581.2679443359375 360.2198791503906 580.254638671875 360.2198791503906 ZM 594.6790161132812 358.58990478515625 C 595.2523803710938 358.58990478515625 595.7656860351562 358.6365661621094 596.2190551757812 358.7298889160156 L 595.9490356445312 360.5398864746094 C 595.4157104492188 360.4198913574219 594.9456787109375 360.3598937988281 594.5390625 360.3598937988281 C 593.4990234375 360.3598937988281 592.6123657226562 360.7832336425781 591.8790283203125 361.6298828125 C 591.1390380859375 362.4698791503906 590.76904296875 363.5198974609375 590.76904296875 364.7798767089844 L 590.76904296875 371.6698913574219 L 588.8190307617188 371.6698913574219 L 588.8190307617188 358.82989501953125 L 590.4290161132812 358.82989501953125 L 590.6490478515625 361.20989990234375 L 590.739013671875 361.20989990234375 C 591.2190551757812 360.3699035644531 591.7957153320312 359.7232360839844 592.4690551757812 359.2698974609375 C 593.1356811523438 358.8165588378906 593.8723754882812 358.58990478515625 594.6790161132812 358.58990478515625 ZM 614.9855346679688 371.6698913574219 L 614.9855346679688 363.3099060058594 C 614.9855346679688 362.2898864746094 614.7688598632812 361.5232238769531 614.3355712890625 361.0098876953125 C 613.8955688476562 360.4965515136719 613.2155151367188 360.2398986816406 612.2955322265625 360.2398986816406 C 611.0822143554688 360.2398986816406 610.185546875 360.58990478515625 609.6055297851562 361.2898864746094 C 609.0322265625 361.98321533203125 608.7455444335938 363.05322265625 608.7455444335938 364.4998779296875 L 608.7455444335938 371.6698913574219 L 606.7955322265625 371.6698913574219 L 606.7955322265625 363.3099060058594 C 606.7955322265625 362.2898864746094 606.578857421875 361.5232238769531 606.1455688476562 361.0098876953125 C 605.70556640625 360.4965515136719 605.022216796875 360.2398986816406 604.0955200195312 360.2398986816406 C 602.8755493164062 360.2398986816406 601.9822387695312 360.6065673828125 601.41552734375 361.33990478515625 C 600.848876953125 362.0732116699219 600.5655517578125 363.2698974609375 600.5655517578125 364.9299011230469 L 600.5655517578125 371.6698913574219 L 598.6155395507812 371.6698913574219 L 598.6155395507812 358.82989501953125 L 600.195556640625 358.82989501953125 L 600.5155639648438 360.57989501953125 L 600.6055297851562 360.57989501953125 C 600.9788818359375 359.95989990234375 601.4989013671875 359.4732360839844 602.16552734375 359.1199035644531 C 602.8322143554688 358.7665710449219 603.578857421875 358.58990478515625 604.405517578125 358.58990478515625 C 606.4122314453125 358.58990478515625 607.7255249023438 359.3165588378906 608.3455200195312 360.7698974609375 L 608.435546875 360.7698974609375 C 608.8222045898438 360.0965576171875 609.37890625 359.5665588378906 610.1055297851562 359.1799011230469 C 610.8322143554688 358.78656005859375 611.6588745117188 358.58990478515625 612.5855712890625 358.58990478515625 C 614.0388793945312 358.58990478515625 615.1255493164062 358.9632263183594 615.8455200195312 359.70989990234375 C 616.5722045898438 360.45654296875 616.935546875 361.64990234375 616.935546875 363.2898864746094 L 616.935546875 371.6698913574219 L 614.9855346679688 371.6698913574219 ZM 632.0291137695312 365.2398986816406 C 632.0291137695312 367.3332214355469 631.50244140625 368.966552734375 630.4490966796875 370.139892578125 C 629.3890991210938 371.313232421875 627.9324340820312 371.89990234375 626.0791015625 371.89990234375 C 624.92578125 371.89990234375 623.90576171875 371.63323974609375 623.0191040039062 371.0998840332031 C 622.125732421875 370.5599060058594 621.4357299804688 369.78656005859375 620.9490966796875 368.7798767089844 C 620.4691162109375 367.7665710449219 620.2290649414062 366.5865478515625 620.2290649414062 365.2398986816406 C 620.2290649414062 363.14654541015625 620.75244140625 361.5132141113281 621.799072265625 360.33990478515625 C 622.8457641601562 359.1732177734375 624.299072265625 358.58990478515625 626.1591186523438 358.58990478515625 C 627.952392578125 358.58990478515625 629.3790893554688 359.1865539550781 630.4390869140625 360.3798828125 C 631.4990844726562 361.57989501953125 632.0291137695312 363.19989013671875 632.0291137695312 365.2398986816406 M 622.2390747070312 365.2398986816406 C 622.2390747070312 366.8798828125 622.569091796875 368.1298828125 623.2290649414062 368.9898986816406 C 623.8824462890625 369.8498840332031 624.8457641601562 370.2798767089844 626.1190795898438 370.2798767089844 C 627.3923950195312 370.2798767089844 628.3590698242188 369.8498840332031 629.0191040039062 368.9898986816406 C 629.6790771484375 368.1365661621094 630.0090942382812 366.8865661621094 630.0090942382812 365.2398986816406 C 630.0090942382812 363.6065673828125 629.6790771484375 362.3665466308594 629.0191040039062 361.5198974609375 C 628.3590698242188 360.66656494140625 627.3857421875 360.2398986816406 626.0990600585938 360.2398986816406 C 624.8257446289062 360.2398986816406 623.8657836914062 360.6598815917969 623.2191162109375 361.4998779296875 C 622.5657348632812 362.3332214355469 622.2390747070312 363.57989501953125 622.2390747070312 365.2398986816406 ZM 646.5247192382812 365.2398986816406 C 646.5247192382812 367.3332214355469 645.998046875 368.966552734375 644.9447021484375 370.139892578125 C 643.8847045898438 371.313232421875 642.4280395507812 371.89990234375 640.57470703125 371.89990234375 C 639.42138671875 371.89990234375 638.4013671875 371.63323974609375 637.5147094726562 371.0998840332031 C 636.621337890625 370.5599060058594 635.9313354492188 369.78656005859375 635.4447021484375 368.7798767089844 C 634.9647216796875 367.7665710449219 634.7246704101562 366.5865478515625 634.7246704101562 365.2398986816406 C 634.7246704101562 363.14654541015625 635.248046875 361.5132141113281 636.294677734375 360.33990478515625 C 637.3413696289062 359.1732177734375 638.794677734375 358.58990478515625 640.6547241210938 358.58990478515625 C 642.447998046875 358.58990478515625 643.8746948242188 359.1865539550781 644.9346923828125 360.3798828125 C 645.9946899414062 361.57989501953125 646.5247192382812 363.19989013671875 646.5247192382812 365.2398986816406 M 636.7346801757812 365.2398986816406 C 636.7346801757812 366.8798828125 637.064697265625 368.1298828125 637.7246704101562 368.9898986816406 C 638.3780517578125 369.8498840332031 639.3413696289062 370.2798767089844 640.6146850585938 370.2798767089844 C 641.8880004882812 370.2798767089844 642.8546752929688 369.8498840332031 643.5147094726562 368.9898986816406 C 644.1746826171875 368.1365661621094 644.5046997070312 366.8865661621094 644.5046997070312 365.2398986816406 C 644.5046997070312 363.6065673828125 644.1746826171875 362.3665466308594 643.5147094726562 361.5198974609375 C 642.8546752929688 360.66656494140625 641.88134765625 360.2398986816406 640.5946655273438 360.2398986816406 C 639.3213500976562 360.2398986816406 638.3613891601562 360.6598815917969 637.7147216796875 361.4998779296875 C 637.0613403320312 362.3332214355469 636.7346801757812 363.57989501953125 636.7346801757812 365.2398986816406 ZM 658.7203369140625 371.6698913574219 L 658.7203369140625 363.3598937988281 C 658.7203369140625 362.313232421875 658.4837036132812 361.5332336425781 658.0103759765625 361.0198974609375 C 657.5303344726562 360.4998779296875 656.78369140625 360.2398986816406 655.7703857421875 360.2398986816406 C 654.4237060546875 360.2398986816406 653.4403686523438 360.60321044921875 652.8203735351562 361.32989501953125 C 652.1936645507812 362.0565490722656 651.88037109375 363.2565612792969 651.88037109375 364.9299011230469 L 651.88037109375 371.6698913574219 L 649.9303588867188 371.6698913574219 L 649.9303588867188 358.82989501953125 L 651.5103759765625 358.82989501953125 L 651.8303833007812 360.57989501953125 L 651.9203491210938 360.57989501953125 C 652.3203735351562 359.9465637207031 652.88037109375 359.45654296875 653.600341796875 359.1098937988281 C 654.3203735351562 358.7632141113281 655.120361328125 358.58990478515625 656.0003662109375 358.58990478515625 C 657.5469970703125 358.58990478515625 658.7136840820312 358.9632263183594 659.5003662109375 359.70989990234375 C 660.2803344726562 360.45654296875 660.6703491210938 361.64990234375 660.6703491210938 363.2898864746094 L 660.6703491210938 371.6698913574219 L 658.7203369140625 371.6698913574219 Z" transform="matrix(7.346364498138428, 0, 0, 7.346364498138428, -3530.263671875, -2321.5224609375)" style="fill: rgb(63, 124, 174); white-space: pre; color: rgb(63, 124, 174);"/></g></g></g></svg>